<?xml version="1.0" encoding="utf-8"?>
<!-- Generator: Adobe Illustrator 24.0.3, SVG Export Plug-In . SVG Version: 6.00 Build 0)  -->
<svg version="1.1" id="圖層_1" xmlns="http://www.w3.org/2000/svg" xmlns:xlink="http://www.w3.org/1999/xlink" x="0px" y="0px"
	 viewBox="0 0 1366 799.94" style="enable-background:new 0 0 1366 799.94;" xml:space="preserve">
<style type="text/css">
	.st0{fill:#A9815B;}
	.st1{fill:#0C3133;}
	.st2{fill:#F6F078;}
	.st3{fill:#FFFFFF;}
	.st4{fill:#D3D3D3;}
</style>
<g>
	<path class="st0" d="M1289.27,758.94H81.73c-26.36,0-47.73-21.37-47.73-47.73V95.67c0-26.36,21.37-47.73,47.73-47.73h1207.53
		c26.36,0,47.73,21.37,47.73,47.73V711.2C1337,737.57,1315.63,758.94,1289.27,758.94z"/>
</g>
<g>
	<rect x="77" y="82.94" class="st1" width="1223" height="648"/>
</g>
<path class="st0" d="M1339.27,771.94H32.73C18.52,771.94,7,760.42,7,746.21v-28.27h1358v28.27
	C1365,760.42,1353.48,771.94,1339.27,771.94z"/>
<rect x="1027" y="702.94" class="st2" width="63" height="14"/>
<rect x="1125" y="702.94" class="st3" width="63" height="14"/>
<path class="st4" d="M529.82,14.4l332,0c26.52,0,48.01,21.49,48.01,48.01v20.54H482.1c-0.16,0-0.29-0.13-0.29-0.29V62.41
	C481.81,35.89,503.3,14.4,529.82,14.4z"/>
</svg>
