<?xml version="1.0" encoding="utf-8"?>
<!-- Generator: Adobe Illustrator 24.0.3, SVG Export Plug-In . SVG Version: 6.00 Build 0)  -->
<svg version="1.1" id="圖層_1" xmlns="http://www.w3.org/2000/svg" xmlns:xlink="http://www.w3.org/1999/xlink" x="0px" y="0px"
	 viewBox="0 0 1366 768" style="enable-background:new 0 0 1366 768;" xml:space="preserve">
<style type="text/css">
	.st0{fill:#A9815B;}
	.st1{fill:#0C3133;}
	.st2{fill:#F6F078;}
	.st3{fill:#FFFFFF;}
</style>
<g>
	<path class="st0" d="M1289.27,727H81.73C55.37,727,34,705.63,34,679.27V63.73C34,37.37,55.37,16,81.73,16h1207.53
		c26.36,0,47.73,21.37,47.73,47.73v615.53C1337,705.63,1315.63,727,1289.27,727z"/>
</g>
<g>
	<rect x="77" y="51" class="st1" width="1223" height="648"/>
</g>
<path class="st0" d="M1339.27,740H32.73C18.52,740,7,728.48,7,714.27V686h1358v28.27C1365,728.48,1353.48,740,1339.27,740z"/>
<rect x="1027" y="671" class="st2" width="63" height="14"/>
<rect x="1125" y="671" class="st3" width="63" height="14"/>
</svg>
