<?xml version="1.0" encoding="utf-8"?>
<!-- Generator: Adobe Illustrator 24.0.3, SVG Export Plug-In . SVG Version: 6.00 Build 0)  -->
<svg version="1.1" id="圖層_1" xmlns="http://www.w3.org/2000/svg" xmlns:xlink="http://www.w3.org/1999/xlink" x="0px" y="0px"
	 viewBox="0 0 1366 799.9" style="enable-background:new 0 0 1366 799.9;" xml:space="preserve">
<style type="text/css">
	.st0{fill:#A9815B;}
	.st1{fill:#0C3133;}
	.st2{fill:#F6F078;}
	.st3{fill:#FFFFFF;}
	.st4{fill:#CBE4E3;}
</style>
<g>
	<path class="st0" d="M1289.3,758.9H81.7c-26.4,0-47.7-21.4-47.7-47.7V95.7c0-26.4,21.4-47.7,47.7-47.7h1207.5
		c26.4,0,47.7,21.4,47.7,47.7v615.5C1337,737.6,1315.6,758.9,1289.3,758.9z"/>
</g>
<g>
	<rect x="77" y="82.9" class="st1" width="1223" height="648"/>
</g>
<path class="st0" d="M1339.3,771.9H32.7C18.5,771.9,7,760.4,7,746.2v-28.3h1358v28.3C1365,760.4,1353.5,771.9,1339.3,771.9z"/>
<rect x="1027" y="702.9" class="st2" width="63" height="14"/>
<rect x="1125" y="702.9" class="st3" width="63" height="14"/>
<path class="st4" d="M529.8,14.4h332c26.5,0,48,21.5,48,48v20.5H482.1c-0.2,0-0.3-0.1-0.3-0.3V62.4
	C481.8,35.9,503.3,14.4,529.8,14.4z"/>
</svg>
