<?xml version="1.0" encoding="utf-8"?>
<!-- Generator: Adobe Illustrator 24.0.3, SVG Export Plug-In . SVG Version: 6.00 Build 0)  -->
<svg version="1.1" id="圖層_1" xmlns="http://www.w3.org/2000/svg" xmlns:xlink="http://www.w3.org/1999/xlink" x="0px" y="0px"
	 viewBox="0 0 270 292" style="enable-background:new 0 0 270 292;" xml:space="preserve">
<style type="text/css">
	.st0{fill-rule:evenodd;clip-rule:evenodd;fill:#EFBFA4;}
	.st1{fill-rule:evenodd;clip-rule:evenodd;}
</style>
<title>peep-21</title>
<desc>Created with Sketch.</desc>
<path id="_xD83C__xDFA8_-Background" class="st0" d="M147.5,128.86c11.34-0.81,26.88,1.44,30.16,14.37
	c1.02,4.71,3.02,6.77,6.39,9.85c21.37,27.36-53.18,31.95-57.01,5.28c-8.07,2.94-16.86,3.56-24.94,6.54
	c-4.38,1.62-8.35,4.17-12.16,6.84c-15.52,11.03-30.83,22.38-46.3,33.48c5.99,2.76,17.37,13.29,12.73,20.36
	c-1.08,1.38-2.68,2.33-4.1,3.34l-0.75,0.53c-1.61,1.15-4.32,3.12-5.82,4.19l-0.28,0.2c-0.11,0.08-0.23,0.17-0.34,0.25
	c10.8,15.8,23.44,30.38,37.47,43.39c1.19,1.11,0.71,3.59-1.02,3.88l-2.06,0.3c-6.65,0.97-13.42,1.84-20.12,1.31
	c-6.52-0.71-10.46-6.49-14.92-10.67c-8.91-9.11-17.2-18.82-24.75-29.09L19.52,243c-2.35-3.21-5.47-6.5-5.7-10.65
	c-0.42-1.25,0.68-3.03,1.73-3.89l0.36-0.52c5.65-8.13,12.04-15.96,20.05-21.85c-0.03-0.88,0.38-1.8,1.18-2.38l33.47-24.23l0,0
	c8.63-5.94,16.66-12.93,26.02-17.73c9.57-4.61,20.37-4.79,30.18-8.64c0.21-2.77,6.04-3.48,5.85-3.05
	c6.15-3.71,9.31-8.13,10.29-12.19C143.92,133.82,142.71,130.12,147.5,128.86z M230.26,215.84c10.35-15.58,20.21,1.66,24.52,12.04
	c5.09,14.21-5.45,31.7-12.26,43.96c-2.51,3.4-5.81,10.58-10.23,11.1c-11.14-0.05-22.29-0.83-33.44-1.06
	c-7.2-1.79,2.9-12.6,9.87-8.65c2.11,0.79,3.17,3.19,5.23,3.96c0.75,0.16,0.8-0.17,1.11-0.92l0.04-0.1c0.54-1.29,1.07-2.6,1.61-3.89
	c4.54-11.18,9.33-22.26,14.1-33.33c1.02-2.4-0.41-4.39-2.27-5.82c-1.42-1.17-7.54-4.03-1.78-2.77
	C224.56,225.2,227.23,219.97,230.26,215.84z M204.57,194.52c1-0.12,2.28,0.88,2.43,1.85c1.27,8.07-0.15,16.04-1.84,23.93l-0.31,1.44
	c-0.63,2.88-1.33,5.81-2.89,8.33c-1.59,2.57-4,4.51-6.77,5.69c-8.88,3.54-19.92,0.04-26.45-6.58c-4.18-5.73-0.51-12.92,0.2-19.19
	c-0.66-1.69-0.91-3.65-1.29-5.39l-0.05-0.21l-1.49-6.5c-0.33-1.43,0.72-3.4,2.43-3.2C180.51,196.08,192.61,196.02,204.57,194.52z"/>
<path id="_xD83D__xDD8D_-Ink" class="st1" d="M246.38,213.81c-0.04-0.16,0.16-0.28,0.28-0.16c2.11,2.03,3.59,4.63,5.23,7.03
	c1.55,2.29,3.25,4.49,4.41,7.02c1.08,2.35,1.77,4.73,1.98,7.32c0.21,2.56-0.06,5.13-0.51,7.66c-0.89,4.98-2.79,9.69-4.88,14.26
	c-2.03,4.45-4.32,8.77-6.74,13.01l-0.87,1.51c-1.06,1.84-2.13,3.69-3.27,5.47c-1.43,2.22-2.73,4.52-4.61,6.37
	c-1.34,1.32-3.85,0-3.24-1.89c0.26-0.82,0.47-1.6,0.88-2.36c0.31-0.58,0.66-1.15,0.99-1.72c0.66-1.15,1.31-2.3,1.97-3.44
	c1.38-2.41,2.84-4.77,4.21-7.19c2.38-4.19,4.62-8.46,6.61-12.85l0.23-0.52c1.83-4.07,3.56-8.28,4.36-12.68
	c0.85-4.63,0.09-9-1.56-13.36c-0.85-2.25-1.81-4.46-2.8-6.65l-0.19-0.42C247.89,218.15,246.88,216.07,246.38,213.81z M144.1,133.64
	c0.02-0.08,0.16-0.09,0.17,0c0.59,3.94-0.72,8.1-2.87,11.37c-1.17,1.79-2.61,3.4-4.31,4.7l-0.13,0.1c-1.74,1.3-4.08,2.55-6.24,1.71
	c-0.07-0.03-0.13-0.06-0.19-0.09c0.24,0.38,0.47,0.77,0.7,1.17c0.68,1.18,1.29,2.4,1.95,3.58c1.18,2.12,2.59,4.02,4.37,5.69
	c7.12,6.65,17.12,8.23,26.51,8.15l0.66-0.01c4.13-0.03,9.52,0.18,12.7-2.81c1.71-1.6,2.65-3.88,3.5-6.03c0.84-2.1,1.41-4.27,2.1-6.4
	c-1.45-1-2.78-2.21-3.83-3.63c-1.09-1.48-1.91-3.14-2.39-4.92l-0.07-0.27c-0.37-1.42-0.74-3.29-0.15-4.63
	c0.07-0.15,0.32-0.14,0.39,0c0.32,0.64,0.38,1.36,0.58,2.05c0.23,0.8,0.49,1.59,0.83,2.34c0.66,1.46,1.53,2.85,2.57,4.07
	c0.86,1.01,1.79,1.93,2.86,2.71c0.63-1.08,2.08-1.23,3.3-0.87c1.63,0.48,3.25,1.09,4.82,1.74l0.31,0.13
	c1.56,0.65,3.32,1.24,4.77,2.12c0.89,0.42,1.73,0.85,2.53,1.22c3.98,1.87,7.9,3.85,11.8,5.88l0.84,0.43
	c1.64,0.85,3.26,1.71,4.68,2.9c1.45,1.21,2.57,2.86,3.63,4.41c2.41,3.54,4.69,7.19,7.08,10.75c4.82,7.19,9.64,14.37,14.49,21.54
	c1.17,1.74,2.5,3.43,3.55,5.24c1.01,1.73,0.98,3.5,0.78,5.43l-0.04,0.35c-0.38,3.54-1.02,6.94-3.01,9.97
	c-3.12,4.77-8.05,7.74-13.25,9.79c0.64,0.47,1.23,0.99,1.99,1.31c1.17,0.5,2.41,0.76,3.67,0.86c1.35,0.11,2.86-0.23,3.95,0.69
	c0.44,0.37,0.45,1.24,0,1.61c-1.05,0.86-2.4,0.61-3.68,0.47l-0.08-0.01c-1.19-0.13-2.35-0.35-3.47-0.79
	c-0.27-0.11-0.55-0.23-0.81-0.36c0.01,0.02,0.01,0.05,0.01,0.08c-0.19,1.46-0.6,2.83-1.04,4.22l-0.28,0.88
	c-0.56,1.8-1.13,3.6-1.71,5.39c-1.11,3.42-2.32,6.81-3.53,10.19l-1.05,2.92c-1.08,3-2.16,5.99-3.37,8.93
	c-0.74,1.82-1.49,3.64-2.24,5.45c-0.73,1.77-1.34,3.69-2.24,5.38c-0.74,1.39-2.77,0.4-2.45-1.03c0.43-1.87,1.23-3.73,1.85-5.56
	c0.63-1.85,1.24-3.7,1.87-5.55c1.11-3.21,2.33-6.38,3.56-9.54l1.22-3.14c1.2-3.07,2.41-6.14,3.7-9.17l0.14-0.33
	c1.34-3.17,2.73-6.74,5.18-9.2c0.03-0.03,0.08-0.05,0.12-0.06c-0.6-0.33-1.16-0.72-1.66-1.19l-0.02-0.02c-0.2-0.21-1-1.23-1.26-1.84
	c-0.34,0.12-0.68,0.24-1.01,0.35c-0.59,0.2-1.08,0.06-1.42-0.26l-0.66,0.41c-0.7,0.43-1.46,0.83-2.23,0.86
	c-0.98,0.03-1.74-0.51-2.26-1.31c-0.47-0.71-0.75-1.48-1.34-2.11c-0.58-0.63-1.26-1.15-1.95-1.66l-0.81-0.59
	c-1.49-1.09-2.94-2.19-4.14-3.63c-0.6-0.73-1.41-1.59-1.78-2.46c-0.07-0.17-0.12-0.33-0.12-0.48c-0.08,0.55-0.16,1.09-0.25,1.64
	c-1.15,7.67-2.09,15.4-2.38,23.16c-0.15,3.83-0.21,7.66-0.04,11.49c0.08,1.91,0.22,3.82,0.42,5.73c0.1,0.96,0.19,1.91,0.31,2.86
	l0.03,0.22c0.03,0.29,0.06,0.57,0.03,0.84c0.93,0.46,1.46,1.62,1.84,2.52c0.28,0.69,0.06,1.36-0.39,1.84
	c0.55,0.5,1.03,1.08,1.44,1.75c0.08,0.14-0.1,0.24-0.2,0.16c-0.67-0.53-1.39-0.97-2.14-1.31c-0.4,0.15-0.83,0.19-1.22,0.08
	c-0.43-0.12-0.8-0.41-1.07-0.77c-2.14-0.35-4.36,0.08-6.28,1.42c-0.4,0.28-0.76,0.59-1.1,0.94c-0.06,0.06-0.12,0.14-0.18,0.21
	l0.42,0.16c0.17,0.07,0.32,0.12,0.37,0.13c0.37,0.07,0.74,0.11,1.11,0.15l0.56,0.05c2.14,0.18,4.27,0.24,6.26,1.13
	c0.42,0.19,0.27,0.83-0.12,0.94c-1.45,0.39-2.9,0.36-4.37,0.26l-0.32-0.02c-1.38-0.11-2.85-0.1-4.19-0.48
	c0.32,0.88-0.12,2.03-1.46,2.21c-4.03,0.54-8.08,0.28-12.12-0.07c-4.07-0.36-8.14-0.7-12.23-0.91c-13.21-0.7-26.44-0.56-39.66-0.37
	l-7.47,0.11c-5.96,0.08-11.92,0.15-17.88,0.1l-2.79-0.03c-1.18-0.01-2.36-0.03-3.54-0.06l-0.71-0.02c-1.4-0.05-3.26,0.16-4.48-0.67
	c-1.01-0.68-1.23-1.94-0.62-2.95c0.18-0.29,0.42-0.55,0.67-0.81c0.52-4.41,0.8-8.83,1.1-13.26c1.03-15.49,0.43-30.9-1.94-46.23
	c-6.35,1.94-12.61,4.38-18.71,6.99c-3.3,1.41-6.58,2.88-9.82,4.42c-2.96,1.41-5.93,3.16-9.1,4.07c-0.29,0.26-0.69,0.38-1.05,0.26
	l-0.05-0.02h0c-0.33,0.08-0.69,0.03-1.04-0.18c-0.07-0.04-0.14-0.09-0.22-0.13l-0.11-0.07c-1.11-0.7-2.23-1.57-3.02-2.62
	c-0.96,0.89-1.99,1.7-3,2.53c-1.1,0.9-2.19,1.8-3.28,2.71c-0.43,0.36-0.91,0.71-1.29,1.12l-0.06,0.06
	c-0.01,0.01-0.02,0.02-0.03,0.03c1.65,1.07,3.09,2.68,4.38,4.09c1.39,1.51,2.72,3.06,4.05,4.63l1.28,1.52
	c9.09,10.73,18.26,21.86,30.03,29.74c1.86,1.25,0.09,4.28-1.76,3.01c-3.49-2.41-6.8-5.08-9.98-7.89
	c-5.56-4.93-10.57-10.45-15.26-16.21c-2.37-2.91-4.68-5.9-6.93-8.91l-0.77-1.02c-1.02-1.36-2.04-2.72-3.01-4.12l-0.2-0.29
	c-0.85-1.23-1.76-2.61-2.31-4.03c-0.21,0.21-0.45,0.39-0.8,0.53c-0.6,0.23-1.33-0.26-1.47-0.84c-0.35-1.41,0.87-2.25,1.87-3
	c1.21-0.9,2.44-1.78,3.68-2.65l0.44-0.31c1.55-1.1,3.1-2.22,4.78-3.09c0.05-0.07,0.11-0.13,0.18-0.19c0.08-0.06,0.16-0.12,0.24-0.19
	c-2.01-3.26-4.22-6.4-6.68-9.36c-1.85-2.23-3.82-4.36-5.89-6.37l-0.93-0.9c-1.41-1.36-2.88-2.75-4.45-3.94l-0.49,0.56
	c-0.66,0.74-1.32,1.48-2.02,2.17c-1.38,1.37-2.74,2.77-4.09,4.16c-2.25,2.32-4.41,4.72-6.58,7.12l-1.08,1.2
	c-2.25,2.5-4.66,4.95-6.71,7.63l-0.1,0.14c-0.89,1.2-1.53,2.53-1.11,4.05c0.4,1.47,1.35,2.77,2.17,4.04l0.08,0.13
	c3.35,5.22,6.94,10.32,10.79,15.19c7.7,9.76,16.49,19.01,26.98,25.79c1.45,0.94,0.1,3.28-1.36,2.33
	c-6.12-4.01-11.75-8.82-16.93-13.98c-4.75-4.74-9.06-9.96-13.09-15.32c-1.97-2.61-3.85-5.28-5.66-8.01
	c-1.75-2.65-3.78-5.37-5.05-8.29c-0.66-1.54-0.91-3.2-0.37-4.82c0.5-1.49,1.49-2.72,2.52-3.89l0.1-0.11
	c2.36-2.66,4.77-5.28,7.2-7.88c2.44-2.61,4.98-5.12,7.58-7.56c2.04-1.92,4.17-3.61,6.45-5.18c-0.2-0.15-0.41-0.29-0.62-0.42
	c-0.64-0.41-0.8-1.3-0.24-1.86c1.52-1.54,3.28-2.88,4.93-4.28c1.55-1.32,3.11-2.64,4.66-3.95c3.16-2.68,6.32-5.36,9.48-8.04
	c5.68-4.82,11.32-9.67,16.98-14.5c2.36-2.02,4.74-4.01,7.12-6.01l4.22-3.55l0,0l2.06-1.73c1.06-0.89,2.14-1.76,3.34-2.44
	c2.83-1.59,6.23-2.28,9.35-3.12l0.21-0.06c3.5-0.96,7.01-1.86,10.55-2.66c3.54-0.8,7.09-1.53,10.66-2.2
	c3.21-0.6,6.49-1.11,9.76-1.18c0.81-0.31,1.83-0.42,2.63-0.09c0.33,0.14,0.67,0.34,0.98,0.59c1.6-0.56,3.18-0.83,4.67-1.78
	c1.49-0.95,2.81-2.2,3.92-3.57C142.09,140.51,143.29,137.15,144.1,133.64z M180.86,229.97c-1.27-0.09-2.41,0.44-3.54,0.99
	c0.64,0.28,1.28,0.55,1.91,0.82l4.25,1.81l0,0c1.4,0.6,2.89,1.12,4.22,1.86c0.1,0.05,0.17,0.12,0.23,0.19
	c1.39-0.89,2.85-1.68,4.26-2.52c0.32-0.19,0.64-0.38,0.97-0.58c-1.67,0.56-3.39,0.84-5.21,0.31
	C185.52,232.16,183.42,230.15,180.86,229.97z M184.33,225.72l-0.23-0.15c-1.23-0.84-2.7-1.93-4.19-1.17
	c-0.7,0.36-1.28,0.93-1.97,1.32c-0.7,0.39-1.46,0.69-2.24,0.87c-1.29,0.3-2.77,0.34-4.16,0.05l0.02,1.88l0,0
	c1.05,0.43,2.09,0.88,3.14,1.33c0.68-0.23,1.33-0.51,2.02-0.82l0.46-0.21c1.32-0.59,2.65-0.99,4.11-0.8
	c2.75,0.35,4.83,2.4,7.45,3.08c3.22,0.84,6.13-1.57,9.17-2.16c0.5-0.1,1.02-0.16,1.53-0.17l0.17,0l0.08-0.04
	c0.65-0.38,1.64-0.75,2.09-1.4c0.5-0.7,0.54-1.88,0.7-2.7c0.02-0.08,0.03-0.17,0.05-0.25c-0.29,0-0.58,0.01-0.87,0.07
	c-0.93,0.17-1.8,0.5-2.67,0.87c-1.64,0.7-3.24,1.49-4.96,1.95c-1.69,0.45-3.45,0.67-5.19,0.42
	C187.15,227.42,185.74,226.66,184.33,225.72z M184.6,219.12l-0.25-0.16c-0.67-0.43-1.44-0.87-2.26-0.71
	c-0.74,0.14-1.37,0.73-2.01,1.09c-1.4,0.79-2.98,1.23-4.59,1.34c-1.34,0.09-2.73-0.07-4.01-0.47l0.04,4.16l0,0
	c0.47,0.15,0.96,0.26,1.47,0.3c1.56,0.12,3.08-0.26,4.39-1.12l0.66-0.44c1.13-0.74,2.19-1.33,3.69-1.06
	c1.48,0.27,2.73,1.22,3.94,2.05l0.2,0.13c1.39,0.92,2.8,1.51,4.51,1.53c1.84,0.01,3.67-0.5,5.39-1.13c1.7-0.63,3.33-1.38,5.15-1.61
	c0.56-0.07,1.24-0.09,1.88,0.02c0.08-0.47,0.16-0.94,0.24-1.41c0.16-1.01,0.31-2.02,0.43-3.04c-3.23-0.87-6.22,1.95-9.23,2.82
	c-1.74,0.5-3.64,0.5-5.38,0.01C187.24,220.95,185.97,220.01,184.6,219.12z M184.6,212.12c-0.69-0.13-1.37,0.19-1.96,0.51
	c-1.5,0.83-2.79,1.99-4.49,2.42c-2.18,0.56-4.57,0.08-6.74-0.84c0.01,1.28,0.02,2.57,0.03,3.85c0.41,0.15,0.83,0.28,1.25,0.38
	c1.52,0.35,3.12,0.3,4.62-0.14c1.52-0.45,2.69-1.65,4.22-2.03c1.56-0.39,3.03,0.36,4.29,1.22l0.38,0.26
	c1.44,0.98,2.83,1.83,4.63,1.99c1.9,0.18,3.56-0.42,5.26-1.21l0.4-0.18c2.15-0.99,4.95-2.12,7.1-0.99c0.17-1.6,0.29-3.2,0.37-4.8
	c-0.3-0.11-0.6-0.19-0.95-0.19c-0.84,0-1.73,0.26-2.51,0.54c-1.72,0.61-3.32,1.51-5.02,2.16c-1.61,0.62-3.4,0.94-5.12,0.66
	c-1.59-0.26-2.79-1.09-3.89-2.23l-0.16-0.17C185.83,212.82,185.32,212.26,184.6,212.12z M185.86,206.19
	c-0.8-0.42-1.77-0.81-2.69-0.69c-0.88,0.12-1.46,0.71-2.01,1.35l-0.29,0.35c-0.97,1.15-1.92,2.11-3.41,2.58
	c-1.55,0.49-3.19,0.3-4.62-0.42c-0.51-0.25-0.99-0.57-1.46-0.88l0.03,3.37l0,0c0.95,0.48,1.93,0.9,2.99,1.16
	c1.97,0.48,3.64,0.12,5.33-0.96l0.18-0.12c1.27-0.83,2.57-1.83,4.14-1.92c1.53-0.09,2.68,0.76,3.68,1.79l0.12,0.12
	c1.27,1.34,2.55,1.99,4.44,1.84c1.83-0.15,3.54-0.96,5.22-1.66l0.15-0.06c1.53-0.63,3.3-1.28,4.99-1.04c0.4,0.06,0.93,0.18,1.39,0.4
	c0.07-1.58,0.1-3.16,0.11-4.74c-0.96-0.83-2.45-0.97-3.64-0.63c-1.88,0.53-3.41,1.91-5.2,2.65c-1.59,0.66-3.25,0.81-4.87,0.18
	C188.74,208.25,187.43,207.02,185.86,206.19z M204.03,199.55c-2.8,0.1-5.55,1.92-8.22,2.62c-2.99,0.78-5.43-0.28-8.09-1.46
	l-0.34-0.15c-1.37-0.6-2.84-1.14-4.35-0.89c-1.48,0.24-2.78,1.06-4.05,1.8l-0.24,0.14c-2.31,1.32-4.67,2.22-7.37,1.99
	c0.01,0.85,0.01,1.69,0.01,2.52c0.44,0.25,0.87,0.54,1.28,0.8l0.15,0.09c1.29,0.81,2.61,1.33,4.15,0.84
	c1.48-0.48,2.18-1.77,3.2-2.84c0.94-0.98,2.16-1.57,3.53-1.51c1.47,0.06,2.86,0.71,4.08,1.5c1.22,0.79,2.39,1.82,3.82,2.21
	c3.19,0.89,5.93-2.49,8.95-3.02c1.27-0.22,2.67,0.06,3.62,0.82C204.12,203.2,204.08,201.37,204.03,199.55z M179.89,198.78
	c-0.4,0.01-0.79,0.03-1.19,0.05c-1.46,0.06-2.92,0.14-4.39,0.22c-1.01,0.05-2.26,0.37-3.25,0.06c-0.03,0.1-0.06,0.2-0.1,0.29
	c0.15,0.75,0.24,1.52,0.3,2.3c0.92,0.1,1.85,0.07,2.75-0.12C176.19,201.13,177.95,199.76,179.89,198.78z M203.98,198.15
	c-5.34,0.37-10.72,0.24-16.07,0.36l-0.64,0.02c-0.03,0-0.05,0-0.08,0c0.61,0.24,1.22,0.51,1.83,0.79l0.61,0.28
	c1.43,0.66,2.89,1.2,4.49,1.08c1.72-0.12,3.34-0.83,4.94-1.39c1.53-0.54,3.3-0.9,4.93-0.67
	C203.99,198.46,203.99,198.31,203.98,198.15z"/>
<path id="_xD83C__xDFA8_-Background_1_" class="st0" d="M159.73,53.95c12,0,29.55,8.01,30.87,15.72c1.56,9.09,5.01,43.25,3.13,54.43
	c-1.88,11.18-9.22,19.44-25.44,19.44s-28.34-8.85-31.12-11.89c-1.85-2.03-3.9-6.19-6.15-12.5c-5.92-1-8.9-3.87-8.92-8.59
	c-0.03-4.72,1.46-7.81,4.46-9.27c-1.62-19.59-0.73-31.81,2.68-36.67C134.35,57.35,147.73,53.95,159.73,53.95z"/>
<path id="_xD83D__xDD8D_-Ink_1_" class="st1" d="M156.26,37.41c2.21,0.04,4.43,0.12,6.64,0.3c0.1-0.01,0.21-0.02,0.31-0.03
	c4.17-0.4,8.33-0.04,12.49,0.14c3.97,0.17,8.16,0.58,11.72,2.48c0.46,0.24,0.85,0.52,1.18,0.83c0.46,0.07,0.91,0.2,1.3,0.42
	c1.15-0.23,2.43,0.28,2.7,1.61c0.4,1.95,0.55,3.92,0.31,5.9c-0.01,0.05-0.01,0.1-0.02,0.15c0.48,1.84,0.45,3.84,0.05,5.65
	c0.17,2.29,0.26,4.58,0.28,6.87c0.01,1.58,0.08,3.2-0.07,4.78c-0.13,1.39-0.7,2.49-1.6,3.54c-0.17,0.2-0.46,0.23-0.69,0.18
	c-0.06-0.01-0.12-0.03-0.16-0.05c0.54,1.16,0.97,2.4,1.41,3.57c0.7,1.87,1.37,3.78,1.85,5.72c0.97,3.91,1.61,7.9,1.98,11.91
	c0.66,7.14,0.9,14.34,1.03,21.51c0.12,6.79-0.48,13.88-4.34,19.69c-3.38,5.08-8.53,8.77-14.27,10.76
	c-3.26,1.13-6.88,1.56-10.33,1.66c-1.78,0.05-3.57-0.02-5.34-0.21c-1.72-0.18-3.49-0.16-4.75-1.46c-0.34-0.36-0.34-1.09,0.17-1.32
	c0.97-0.44,1.63-0.49,2.69-0.34c0.88,0.12,1.76,0.22,2.65,0.28c1.9,0.13,3.82,0.14,5.72-0.01c3.49-0.27,7.07-1.26,10.24-2.75
	c4.98-2.35,9.25-6.2,11.56-11.25c2.68-5.86,2.51-12.66,2.38-18.96c-0.14-6.91-0.39-13.8-0.99-20.69c-0.29-3.34-0.74-6.66-1.15-9.98
	c-0.21-1.77-0.49-3.53-0.84-5.27c-0.18-0.92-0.42-1.83-0.61-2.75c-0.14,0.02-0.29,0.04-0.43,0.04c-0.88,0.03-1.85-0.19-2.5-0.81
	c-0.25,0.17-0.57,0.28-0.95,0.3c-3.63,0.18-7.32-0.04-10.96-0.04c-3.65,0-7.3,0-10.96,0.01c-3.65,0.01-7.31,0.04-10.95-0.05
	c-3.4-0.09-6.9-0.02-10.25-0.64c-1.13,4-1.09,8.4,1.26,11.98c0.66,1.01,0.12,2.2-0.74,2.83c-0.88,0.64-2.47,1.63-3.83,1.73
	c-0.13,0.3-0.27,0.59-0.4,0.88c-0.65,1.48-1.23,2.97-1.64,4.53c-0.21,0.81-0.39,1.63-0.54,2.45c0.01,0.14,0.03,0.29,0.04,0.43
	c0,0.01,0,0.03,0,0.05c0.01,0.06,0.02,0.13,0.03,0.17c0.08,0.41,0.15,0.83,0.24,1.24c0.2,1,0.35,2.02,0.46,3.03
	c0.2,1.86,0.18,4.28-1.64,5.38c-0.97,0.59-2.13,0.53-3.16,0.13c-0.69-0.27-1.27-0.64-1.91-1.01c-0.38-0.22-0.77-0.4-1.14-0.63
	c-0.1-0.06-0.2-0.14-0.29-0.22c-0.69,0.15-1.36,0.42-1.73,0.6c-1.01,0.5-1.89,1.23-2.65,2.06c-1.6,1.77-2.08,4.27-1.85,6.59
	c0.21,2.16,1.06,4.64,2.76,6.07c0.74,0.63,1.67,0.99,2.65,0.98c0.48,0,0.93-0.11,1.39-0.23c0.46-0.12,1.02-0.08,1.45-0.25
	c0.63-0.25,1.4,0.52,1.15,1.15c-0.19,0.47-0.3,0.89-0.54,1.26c1.75,2.86,3.67,5.63,5.7,8.28c1.84,2.39,4,4.4,6.05,6.6
	c0.9,0.97,1.28,2.87-0.35,3.29c-1.63,0.42-2.85-1.33-3.78-2.4c-3.88-4.41-6.81-9.48-8.18-15.19c-0.62,0.44-1.33,0.68-2.08,0.78
	c-1.49,0.21-3-0.09-4.3-0.84c-4.94-2.86-6.14-10.57-3.82-15.41c0.56-1.16,1.38-2.2,2.39-3.01c-0.08-0.15-0.11-0.33-0.06-0.52
	c0.09-0.33,0.19-0.66,0.29-0.99c-0.11-0.05-0.19-0.15-0.18-0.31c0.09-0.95,0.18-1.9,0.27-2.85c-0.03-1.44-0.1-2.87-0.08-4.32
	c0.03-2.3,0.17-4.61,0.17-6.91c0.03-8.04,0.35-16.06,0.38-24.1c0.01-3.93,0.02-7.86-0.08-11.79c0-0.05,0-0.1,0-0.16
	c-0.08-3.14-0.92-7.35,2.15-9.38c0.5-0.33,1.13-0.34,1.68-0.12c1.58-1.1,3.56-1.63,5.46-1.94c3.61-0.58,7.25-0.86,10.89-1.23
	c1.9-0.19,3.89-0.27,5.8-0.22C152.36,37.56,154.32,37.38,156.26,37.41z M126.98,107.75c0.69-0.66,1.72-0.51,2.57-0.35
	c1.18,0.22,2.32,0.73,3.32,1.39c1.07,0.71,2.39,1.7,2.6,3.05c0.19,1.24-1.04,2.61-2.31,1.78c-1.18-0.77-1.75-2.19-2.76-3.15
	c-0.5-0.47-1.03-0.89-1.6-1.27c-0.26-0.17-0.51-0.37-0.79-0.5c-0.03-0.01-1.19-0.39-0.96,0.11c0.08,0.16-0.12,0.35-0.26,0.2
	C126.37,108.6,126.6,108.11,126.98,107.75z"/>
<g id="face_x2F_Smiling" transform="translate(112.183099, 77.354207)">
	<path id="_xD83D__xDD8D_-Ink_2_" class="st1" d="M60.97,50.92c-1.42-0.58-2.69-1.55-3.61-2.78c-0.32-0.43-0.41-0.88-0.34-1.3
		c0.08-0.47,0.35-0.89,0.73-1.17c0.38-0.28,0.85-0.42,1.31-0.35c0.4,0.06,0.79,0.28,1.1,0.73l0.07,0.09
		c0.55,0.75,1.27,1.36,2.09,1.75c0.79,0.38,1.67,0.56,2.58,0.45c1.74-0.2,2.93-1.14,4.21-2.41c0.16-0.16,0.32-0.33,0.47-0.5
		c0.1-0.15,0.24-0.25,0.39-0.3c0.17-0.06,0.37-0.05,0.54,0.01c0.17,0.06,0.32,0.17,0.43,0.32c0.1,0.14,0.15,0.32,0.13,0.52
		c-0.12,1.32-0.81,2.5-1.79,3.43c-1.09,1.03-2.54,1.74-3.9,1.99C63.88,51.68,62.35,51.48,60.97,50.92L60.97,50.92z M66.09,30.51
		c1.6,0.97,4.03,3.23,2.31,5.64c-2.02,2.12-4.93-0.31-6.36-1.41c-1.33-0.85-2.82,1.34-1.59,2.33c10.36,7.67,14.56-6.31,6.45-7.7
		C66,29.22,65.67,30.21,66.09,30.51z M47.53,21.59c0.18-2.19,3.51-2.69,3.84-0.52c0.3,1.94-0.05,3.72-0.93,5.47
		c-0.83,1.67-2.93,0.89-3.09-0.63C47.14,23.87,47.42,22.95,47.53,21.59z M72.89,20.62c0.46-0.61,1.14-1.02,1.94-0.79
		c2.51,0.73,1.77,4.3,0.89,6.04c-0.48,0.94-2.03,1.18-2.73,0.35c-1.14-1.35-1.69-4.06-0.24-5.39C72.8,20.76,72.84,20.69,72.89,20.62
		z M50.41,12.01l0.4-0.07c1.23-0.21,2.75-0.42,3.62,0.57c0.46,0.52,0.62,1.5,0,2c-1.09,0.88-2.29,0.54-3.6,0.61
		c-1.07,0.06-2.11,0.24-3.14,0.54c-2.27,0.65-4.12,1.84-6.06,3.14c-0.25,0.17-0.51-0.15-0.39-0.39c1.12-2.19,3.29-4,5.46-5.1
		C47.85,12.72,49.12,12.23,50.41,12.01z M70.6,11.03l0.3,0.06c3.3,0.69,7.6,2.07,9.16,5.32c0.06,0.46,0,0.56-0.05,0.62L80,17.05
		c-0.04,0.05-0.08,0.13-0.27,0.19c-0.06-0.01-0.11-0.03-0.17-0.04c-0.72-0.19-1.28-0.45-1.83-0.72l-0.6-0.29
		c-0.69-0.34-1.39-0.67-2.13-0.91c-1.58-0.51-3.2-0.88-4.84-1.07c-0.36-0.04-0.7-0.16-0.97-0.37c-0.26-0.2-0.45-0.47-0.54-0.83
		c-0.12-0.47-0.08-0.82,0.17-1.24c0.19-0.32,0.46-0.54,0.77-0.66C69.89,10.99,70.25,10.96,70.6,11.03z"/>
</g>
<g id="facial-hair_x2F__x2A_-None" transform="translate(104.577451, 109.479380)">
</g>
<g id="accessories_x2F__x2A_-None" transform="translate(88.521127, 88.978474)">
</g>
</svg>
