<?xml version="1.0" encoding="utf-8"?>
<!-- Generator: Adobe Illustrator 24.0.3, SVG Export Plug-In . SVG Version: 6.00 Build 0)  -->
<svg version="1.1" id="圖層_1" xmlns="http://www.w3.org/2000/svg" xmlns:xlink="http://www.w3.org/1999/xlink" x="0px" y="0px"
	 viewBox="0 0 240 323" style="enable-background:new 0 0 240 323;" xml:space="preserve">
<style type="text/css">
	.st0{fill-rule:evenodd;clip-rule:evenodd;fill:#EFBFA4;}
	.st1{fill-rule:evenodd;clip-rule:evenodd;fill:#FFF9B4;stroke:#000000;stroke-miterlimit:10;}
	.st2{fill-rule:evenodd;clip-rule:evenodd;}
	.st3{fill-rule:evenodd;clip-rule:evenodd;fill:#FFFFFF;stroke:#000000;stroke-miterlimit:10;}
</style>
<path class="st0" d="M190.58,277.67h-64.25c-0.82,0-1.48-0.66-1.48-1.48v-33.57c0-0.82,0.66-1.48,1.48-1.48
	c21.94-4.11,62.77-1.48,64.25,0s0.62-2,1.48,1.48c2.56,1.01,9.58,14.37,0,33.57C192.06,277,191.4,277.67,190.58,277.67z"/>
<rect x="104.53" y="165.98" class="st0" width="40.17" height="21.04"/>
<title>peep-67</title>
<desc>Created with Sketch.</desc>
<path id="_xD83D__xDD8D_-Ink" class="st1" d="M163.32,248.79c-2.34-0.92-4.86-1.42-7.39-1.62c1.36-0.24,2.73-0.47,4.11-0.59
	c0.96-0.08,1.85-0.07,2.58,0.66c0.48,0.49,0.71,1.11,1.02,1.69C163.53,248.88,163.42,248.83,163.32,248.79z M188.42,240.21
	c-3.83,0.19-7.66,1.11-11.13,2.76c-1.42,0.68-2.7,1.65-3.08,3.26c-0.19,0.82-0.14,1.67-0.04,2.5c0.08,0.63,0.1,1.43,0.64,1.85
	c0.09,0.07,0.19,0.13,0.3,0.17c-1.28,0.58-2.5,1.27-3.58,1.98c-0.99,0.65-2,1.66-2.46,2.79c-0.04-0.13-0.08-0.25-0.11-0.36
	c-0.78-2.3-1.98-4.18-3.86-5.45c0.33-0.15,0.56-0.51,0.46-1c-0.45-2.05-2.34-3.83-4.47-3.7c-2.34,0.14-4.85,0.99-6.97,2.06
	c-0.77-0.02-1.54-0.01-2.3,0.03c-0.13,0-0.12,0.18,0,0.2c0.62,0.08,1.23,0.16,1.85,0.27c1.47,0.23,2.93,0.53,4.36,0.9
	c1.72,0.44,3.49,0.89,5.09,1.67c3.11,1.51,5.03,5.45,4.64,8.87c-0.07,0.56-0.28,2.26-1.06,2.09c-0.66-0.15-0.92-1.52-1.15-2.03
	c-0.62-1.35-1.73-2.24-3.06-2.83c-1.57-0.7-3.24-1.18-4.86-1.73c-0.92-0.31-1.84-0.63-2.76-0.94c-0.94-0.32-1.84-0.77-2.84-0.54
	c-0.61,0.14-0.68,0.86-0.34,1.27c0.52,0.63,1.29,0.82,2.03,1.08c0.98,0.34,1.97,0.68,2.95,1.03c1.52,0.53,3.11,0.97,4.59,1.62
	l-0.05,0.11c-0.12-0.03-0.26,0.09-0.24,0.23c0.22,1.37,0.53,2.95,0.19,4.32c-0.27,1.09-1.22,2.29-2.46,1.97
	c0.19-0.18,0.27-0.48,0.14-0.77c-0.49-1.05-6.91-5.19-7.49-3.65c-0.02,0.05,0.04,0.09,0.09,0.09c0.49-0.1,1.31,0.73,1.7,1
	c0.56,0.38,1.14,0.75,1.69,1.14c0.61,0.43,1.21,0.88,1.79,1.34c0.46,0.36,0.8,0.74,1.32,0.93c-0.27,0.13-0.49,0.37-0.59,0.68
	c-0.24,0.81-0.69,1.5-1.49,1.85c-0.83,0.37-1.77,0.14-2.64,0.23c-1.19,0.12-2.23,0.69-3.1,1.5c-1.82,1.7-2.74,4.7-5.29,5.51
	c-1.52,0.48-3.21,0.18-4.76-0.04c-1.72-0.24-3.4-0.44-5.13-0.18c-1.66,0.24-3.23,0.82-4.75,1.52c-1.42,0.66-2.99,1.4-4.25,2.38
	c-0.26-0.8-0.52-1.59-0.72-2.41c-0.47-1.93-0.72-3.9-0.78-5.89c-0.06-1.89,0.05-3.79,0.21-5.67c0.08-0.94,0.21-1.88,0.29-2.82
	c0.02-0.24,0.06-0.49,0.1-0.74c2.25-1.33,4.62-2.35,7-3.4c0.01,0,0.01-0.01,0.02-0.01c0.07-0.03,0.15-0.07,0.22-0.1
	c0,0,0-0.01-0.01-0.01c0.27-0.17,0.46-0.39,0.58-0.64c3.44-2.28,6.31-5.39,8.45-9.02c0.9-1.52,1.76-3.1,2.94-4.43
	c1.25-1.42,2.74-2.27,4.57-2.71c2.15-0.52,4.36-0.82,6.56-1c1.2-0.09,2.55-0.24,3.86-0.24c0.91,0.01,1.81,0.08,2.63,0.31
	c1.21,0.33,1.92,1.26,2.69,2.19c0.73,0.9,1.45,1.79,2.13,2.73c0.64,0.89,1.25,1.8,1.78,2.76c0.32,0.57,0.61,1.17,0.86,1.78
	c0.09,0.22,0.2,0.46,0.25,0.68c0.05,0.23-0.04,0.47,0.21,0.47c-1.05,0.01-1.04,1.69,0,1.63c4.07-0.24-1.76-8.18-2.61-9.29
	c-1.21-1.57-2.45-3.61-4.38-4.34c-0.03-0.01-0.06-0.02-0.08-0.03c0.56-0.53,1.01-1.17,1.43-1.82c0.44-0.67,0.96-1.43,1.1-2.23
	c0.09-0.5-0.54-0.79-0.83-0.35c-0.43,0.64-0.64,1.46-0.97,2.17c-0.33,0.72-0.73,1.4-1.05,2.12c-0.76-0.23-1.59-0.34-2.43-0.38
	c1.06-1.43,2.87-4.2,3.08-4.55c1-1.64,1.95-3.34,2.86-5.04c0.98-1.84,1.83-3.75,2.77-5.61c0.53-1.05,1.07-2.12,1.67-3.14
	c0.2-0.35,0.42-0.7,0.67-1.02c0.05-0.06,0.11-0.12,0.17-0.18c0.07-0.04,0.13-0.08,0.17-0.1c0.34-0.2,0.46-0.65,0.7-0.94
	c0.38-0.47,0.84-0.52,1.42-0.53c1.23-0.01,2.47,0.04,3.7,0.07c1.81,0.05,3.62,0.12,5.43,0.22c0.55,0.03,1.09,0.06,1.64,0.09
	c2.63,0.16,5.26,0.36,7.88,0.61c2.32,0.22,4.64,0.58,6.96,0.76c-3.14,7.47-6.63,14.81-10.58,21.89
	C188.47,240.07,188.44,240.14,188.42,240.21z M170.98,259.46c-0.51,0.23-1,0.52-1.46,0.85c0.08-0.51,0.1-1.05,0.07-1.6
	C169.97,259.12,170.46,259.35,170.98,259.46z M192.62,246.61c-0.04,0-0.07,0.02-0.09,0.06c-0.7,1.45-0.41,3.06,0.74,4.2
	c0.6,0.59,1.91,1.26,1.87,2.23c-0.04,0.79-0.89,1.45-1.26,2.09c-0.34,0.6-0.47,1.27-0.19,1.92c0.35,0.84,1.32,1.17,1.66,2
	c0.42,1.05-0.26,2.31-0.75,3.22c-0.45,0.84-1.03,1.69-1.41,2.58c-2.58,1.33-4.88,3.38-6.86,5.46c-2.17,2.27-4.03,4.95-7.48,4.88
	c-0.34-0.01-0.61,0.18-0.76,0.43c-0.96,0.04-1.92,0.06-2.88,0.07c-1.69,0.01-3.37-0.01-5.06-0.06c-0.12-0.41-0.03-0.96-0.04-1.31
	c-0.02-1.11-0.03-2.22-0.08-3.33c-0.01-0.31-0.03-0.62-0.04-0.93c0.61,1.1,1.79,1.6,3.14,1.52c2.17-0.13,4.35-0.48,6.49-0.8
	c1.13-0.17,2.26-0.36,3.38-0.56c0.93-0.16,2.23-0.12,2.88-0.86c0.15-0.17,0.16-0.49-0.08-0.61c-0.64-0.31-1.04-0.14-1.75,0
	c-0.86,0.17-1.72,0.33-2.58,0.47c-1.65,0.29-3.31,0.55-4.98,0.79c-0.95,0.13-1.9,0.26-2.84,0.37c-0.83,0.09-1.76,0.21-2.43-0.41
	c-1.35-1.26-0.59-3.37,0.26-4.64c0.02-0.03,0.02-0.05,0.01-0.07c0.8-0.19,1.6-0.41,2.4-0.56c1.54-0.3,3.08-0.55,4.63-0.77
	c3.18-0.45,6.38-0.75,9.58-1.06c0.79-0.08,0.8-1.32,0-1.25c-4.6,0.42-9.21,0.82-13.75,1.71c-1.14,0.22-2.26,0.47-3.39,0.75
	c-0.53,0.13-1.1,0.34-1.65,0.34c-0.03,0-0.07,0-0.1,0c-1.09-0.03-1.25-0.97-0.65-1.74c0.07-0.1,0.15-0.19,0.23-0.28
	c1.06-1.26,2.37-2.1,3.73-2.97c1.52-0.21,3.03-0.67,4.52-1.01c3.67-0.84,7.34-1.67,11.02-2.51c0.72-0.16,0.41-1.27-0.31-1.11
	c-2.79,0.63-5.58,1.26-8.37,1.9l-4.08,0.93c-0.82,0.18-1.83,0.55-2.79,0.69c-0.47,0.07-0.93,0.07-1.35-0.02
	c-1.34-0.32-1.4-1.99-0.83-2.98c0.65-1.12,1.87-1.81,2.95-2.45c1.88-1.1,3.88-1.89,5.83-2.79c0.35-0.08,0.69-0.15,1.04-0.23
	c2.02-0.44,4.32-0.66,6.22-1.48c0.57-0.24,0.26-1.14-0.3-1.12c-1.47,0.03-3.01,0.56-4.45,0.87c-1.56,0.34-3.12,0.67-4.67,1.01
	c-0.16,0.03-1.08,0.33-1.22,0.26c-0.09-0.04-0.12-0.35-0.15-0.55c-0.1-0.67-0.16-1.37-0.06-2.04c0.23-1.5,1.48-2.21,2.75-2.79
	c2.82-1.28,5.92-2.09,9-2.41c0.71-0.07,1.42-0.12,2.13-0.14c0.84-0.03,1.53-0.17,1.95,0.65
	C192.03,243.45,192.4,245.12,192.62,246.61z M188.7,293.81c-0.61-2.13-0.45-4.4-0.87-6.57c-0.22-1.12-0.51-2.23-0.84-3.32
	c-0.26-0.88-0.7-1.82-0.75-2.74c0-0.06,0.07-0.1,0.12-0.07c0.87,0.5,1.53,1.57,2.03,2.42c0.59,1.01,1.04,2.07,1.41,3.18
	c0.73,2.21,1.32,4.88,0.39,7.11C189.91,294.48,188.93,294.61,188.7,293.81z M169.7,265.63c0.52-0.05,1.04-0.15,1.56-0.27
	c-0.58,0.57-1.12,1.25-1.42,2.01c-0.05-0.58-0.11-1.16-0.18-1.74C169.67,265.63,169.68,265.63,169.7,265.63z M164.7,309.92
	c-0.92-0.64-1.58-1.53-2.36-2.32c-0.76-0.78,0.43-1.97,1.2-1.2c0.66,0.67,1.24,1.51,2.02,2.06c0.38,0.26,0.55,0.74,0.3,1.16
	C165.64,309.99,165.07,310.18,164.7,309.92z M159.59,285.33c1.67-0.72,3.32-1.51,5.07-2.03c1.05-0.31,1.49,1.32,0.45,1.63
	c-1.61,0.48-3.13,1.2-4.67,1.86C159.45,287.22,158.59,285.76,159.59,285.33z M141.92,284.83c-0.41-1.01,1.23-1.44,1.63-0.45
	c0.46,1.15,1,2.26,1.46,3.41c0.41,1.01-1.23,1.45-1.63,0.45C142.92,287.09,142.38,285.97,141.92,284.83z M124.48,304.99
	c-0.27,0.36-0.73,0.56-1.16,0.3c-0.36-0.22-0.58-0.79-0.3-1.16c0.81-1.07,1.62-2.14,2.57-3.09c0.77-0.78,1.96,0.42,1.2,1.2
	C125.94,303.1,125.2,304.03,124.48,304.99z M121.99,191.84c0.78,0.53,1.46,1.17,2.12,1.84c0.77,0.77-0.42,1.97-1.2,1.2
	c-0.56-0.56-1.12-1.13-1.78-1.57c-0.38-0.26-0.55-0.74-0.3-1.16C121.05,191.77,121.61,191.58,121.99,191.84z M147.36,219.05
	c-0.44,0.88-0.83,1.74-0.86,2.74c-0.03,1.09-1.72,1.09-1.69,0c0.03-1.31,0.51-2.44,1.09-3.59
	C146.39,217.22,147.84,218.08,147.36,219.05z M156.67,197.19c0.91-0.61,1.75,0.86,0.85,1.46c-0.73,0.49-1.46,0.97-2.19,1.46
	c-0.91,0.61-1.75-0.86-0.85-1.46C155.21,198.17,155.94,197.68,156.67,197.19z M116.29,235.4c-0.16,1.07-1.78,0.61-1.63-0.45
	c0.24-1.64,0.53-3.27,0.97-4.87c0.29-1.05,1.92-0.6,1.63,0.45C116.82,232.13,116.53,233.76,116.29,235.4z M110.37,254.77
	c-1.09-0.02-1.09-1.71,0-1.69c0.98,0.02,1.95,0.28,2.9,0.52c1.06,0.26,0.61,1.89-0.45,1.63
	C112.02,255.03,111.2,254.79,110.37,254.77z M108.18,293.78c-0.37,0.18-0.76,0.35-1.13,0.52c-0.76,0.35-1.51,0.69-2.27,1.04
	c-1.57,0.72-3.15,1.45-4.72,2.18c-3.15,1.46-6.32,2.86-9.48,4.31c-3.22,1.47-6.43,2.96-9.63,4.46c-1.51,0.71-3.03,1.38-4.55,2.07
	c-1.3,0.59-2.9,1.61-4.33,1.71c-0.07,0.01-0.1-0.09-0.06-0.14c0.54-0.61,1.4-0.97,2.11-1.37c0.72-0.41,1.46-0.79,2.19-1.18
	c1.53-0.81,3.06-1.61,4.6-2.4c3.09-1.56,6.18-3.11,9.27-4.66c3.15-1.58,6.31-3.17,9.49-4.7c1.5-0.72,3-1.43,4.5-2.15
	c0.81-0.39,1.63-0.77,2.44-1.16c0.35-0.17,0.7-0.35,1.06-0.49c0.48-0.2,0.84-0.16,1.33-0.28c0.8-0.2,1.15,0.82,0.53,1.27
	C109.03,293.19,108.76,293.5,108.18,293.78z M96.9,311.12c-0.17-0.42,0.19-0.93,0.59-1.04c0.48-0.13,0.86,0.17,1.04,0.59
	c0.46,1.13,1.12,2.16,1.97,3.04c0.76,0.78-0.44,1.98-1.2,1.2C98.24,313.81,97.47,312.53,96.9,311.12z M88.59,283.98
	c-0.77-0.77,0.42-1.97,1.2-1.2l2.19,2.19c0.77,0.77-0.43,1.97-1.2,1.2L88.59,283.98z M66.12,280.41c-1.57,0.46-3.41,0.89-4.49,2.23
	c-0.05,0.07-0.14-0.02-0.11-0.08c1.37-2.85,5.32-3.85,8.05-4.85c1.93-0.71,3.91-1.29,5.91-1.82c-0.2-2.28,0.35-4.72,0.54-6.99
	c0.2-2.42,0.37-4.85,0.46-7.28c0.09-2.48,0.11-4.97,0.03-7.45c-0.08-2.47-0.4-4.91-0.54-7.37c-0.01-0.24,0.32-0.25,0.39-0.05
	c0.83,2.28,1.18,4.81,1.45,7.22c0.28,2.48,0.37,4.95,0.33,7.45c-0.04,2.57-0.19,5.13-0.39,7.68c-0.1,1.21-0.21,2.42-0.32,3.63
	c-0.08,0.92-0.12,1.84-0.31,2.74c1.2-0.3,2.41-0.58,3.62-0.85c3.84-0.87,7.69-1.67,11.51-2.61c1.88-0.46,3.73-1.01,5.59-1.5
	c1.76-0.46,3.61-1.02,5.42-1.22c0.64-0.07,0.73,0.81,0.3,1.11c-1.47,1.03-3.42,1.75-5.11,2.33c-1.7,0.58-3.47,1-5.21,1.42
	c-3.64,0.89-7.31,1.63-10.97,2.39s-7.33,1.52-10.95,2.46C69.59,279.45,67.85,279.9,66.12,280.41z M57.49,235.18
	c-0.94,0.55-1.79-0.91-0.85-1.46c1.23-0.72,2.53-1.26,3.85-1.79c1.01-0.4,1.45,1.23,0.45,1.63
	C59.76,234.03,58.59,234.53,57.49,235.18z M54.09,297.99c-0.94,0.55-1.79-0.91-0.85-1.46c1.32-0.77,2.77-1.28,4.14-1.95
	c0.97-0.48,1.83,0.98,0.85,1.46C56.85,296.71,55.41,297.23,54.09,297.99z M52.55,262.33c0.91,0.87,2.13,1.28,3.28,1.73
	c1,0.4,0.56,2.03-0.45,1.63c-1.43-0.57-2.89-1.09-4.02-2.17C50.57,262.78,51.76,261.59,52.55,262.33z M62.65,213.91
	c1,0.39,0.56,2.03-0.45,1.63c-1.12-0.44-2.28-0.78-3.41-1.22c-1-0.39-0.56-2.03,0.45-1.63C60.36,213.13,61.52,213.47,62.65,213.91z
	 M80.45,194.67c1.07-0.18,1.52,1.45,0.45,1.63c-1.33,0.22-2.63,0.49-3.89,0.97c-1.02,0.39-1.45-1.24-0.45-1.63
	C77.81,195.16,79.12,194.9,80.45,194.67z M86.33,241.51c-0.98-0.48-0.12-1.94,0.85-1.46c1.03,0.5,2.09,0.89,3.21,1.13
	c1.07,0.23,0.61,1.86-0.45,1.63C88.68,242.54,87.48,242.07,86.33,241.51z M91.89,215.13c1.05-0.29,1.5,1.34,0.45,1.63
	c-1.84,0.51-3.74,0.77-5.6,1.22c-1.06,0.26-1.51-1.37-0.45-1.63C88.15,215.89,90.05,215.63,91.89,215.13z M115.46,206.85
	c1.07,0.2,0.61,1.83-0.45,1.63c-1.13-0.21-2.28-0.21-3.43-0.21c-1.09,0-1.09-1.69,0-1.69C112.89,206.57,114.17,206.61,115.46,206.85
	z M192.33,215.68c-2.76-0.26-5.53-0.48-8.3-0.63c-0.13-0.01-0.26-0.01-0.38-0.02c-0.01-0.03-0.03-0.06-0.05-0.09
	c-0.9-1.33-1.57-2.65-2.15-4.16c-0.55-1.43-1.09-2.9-1.94-4.19c-0.97-1.47-2.28-2.62-3.71-3.61c-0.87,0.58-1.68,1.27-2.41,2
	c-0.78,0.76-1.97-0.43-1.2-1.2c0.66-0.65,1.36-1.24,2.1-1.78c-0.85-0.52-1.73-1.01-2.58-1.49c-3.19-1.82-6.45-3.5-9.78-5.04
	c-1.55-0.72-3.12-1.35-4.69-2c-0.85-0.35-1.69-0.79-2.54-1.19c0.06-0.6-0.12-1.27-0.58-1.67c-0.34-0.29-0.6-0.4-1.01-0.6
	c-0.09-0.03-0.15-0.05-0.17-0.06c0.02,0,0.07,0.02,0.16,0.05c0.22,0.1,0.23,0.07,0.05-0.09c-0.01-0.34-0.68-1.06-0.84-1.42
	c-0.54-1.21-0.7-2.49-1.5-3.6c-1.09-1.52-2.93-2.09-4.64-1.58c-0.18-1.83-0.22-3.74-0.91-5.37c-0.02-0.04-0.08-0.06-0.11-0.01
	c-0.72,1.22-0.78,2.59-0.83,4c-0.05,1.33,0,2.68,0.17,4c-0.11,0.08-0.22,0.17-0.34,0.24c-0.55,0.36-1.13,0.64-1.75,0.84
	c-1.17,0.39-2.41,0.56-3.64,0.62c-3.18,0.15-6.46-0.17-9.58-0.71c-3.16-0.55-8.01-1.38-10.83-2.96c-1.86-1.04-3.57-2.32-5.31-3.55
	c0.63-2.03,0.79-4.21,0.16-5.92c-0.08-0.21-0.4-0.24-0.46,0c-0.4,1.64-0.51,3.28-1.04,4.9c-0.01,0.02-0.02,0.05-0.03,0.07
	c-0.16-0.11-0.33-0.22-0.49-0.33c-0.38-0.25-0.9-0.06-1.13,0.3c-3.65,5.75-9.43,6.08-15.49,7.11c-6.64,1.12-13.31,2.34-19.7,4.54
	c-6.11,2.11-11.94,5.17-16.56,9.75c-1.05,1.04-2.02,2.14-2.95,3.29c0.89,0.11,1.78,0.29,2.65,0.56c1.04,0.33,0.59,1.96-0.45,1.63
	c-1.12-0.35-2.26-0.53-3.41-0.62c-3.14,4.3-5.59,9.17-7.71,13.97c-4.06,9.2-6.71,18.99-7.92,28.97c0.67-0.4,1.35-0.78,2.05-1.14
	c0.97-0.49,1.82,0.97,0.85,1.46c-1.08,0.55-2.12,1.15-3.14,1.81c-0.44,4.37-0.61,8.76-0.51,13.15c0.25,10.46,1.66,21.22,4.85,31.2
	c1.57,4.9,3.64,9.75,6.73,13.89c1.4,1.87,2.99,3.57,4.86,4.97c0.91,0.68,1.87,1.3,2.88,1.81c1.3,0.67,3,0.89,4.13,1.83
	c0.37,0.31,0.65,0.72,0.87,1.18c-0.12,0.88-0.14,1.76,0.1,2.64c0.08,0.27,0.28,0.5,0.54,0.61c0,0.08,0,0.15,0,0.22
	c0,0.03,0.05,0.04,0.06,0.01c0.01-0.07,0.02-0.13,0.03-0.2c0.08,0.03,0.17,0.04,0.26,0.04c3.21,0.01,6.42-0.07,9.64-0.18
	c-0.25-0.76-0.52-1.52-0.78-2.28c-0.35-1.03,1.28-1.47,1.63-0.45c0.3,0.89,0.62,1.77,0.9,2.67c3.44-0.13,6.88-0.28,10.32-0.4
	c7.31-0.24,14.61-0.32,21.92-0.48c11.35-0.24,22.79-0.73,34.15-0.25c0.39-0.83,0.83-1.65,1.25-2.47c0.49-0.97,1.95-0.12,1.46,0.85
	c-0.29,0.57-0.59,1.14-0.88,1.71c2.3,0.12,4.6,0.28,6.9,0.49c3.92,0.37,7.8,1.02,11.71,1.43c3.98,0.41,7.87,0.34,11.82-0.32
	c0.71-0.12,1.13-0.55,1.3-1.08c0.01,0,0.01-0.01,0.01-0.01c0.2-0.24,0.39-0.43,0.59-0.6c0.23-0.15,0.49-0.28,0.79-0.4
	c0.56-0.21,1.13-0.34,1.72-0.43c0.65-0.1,1.3-0.11,1.95-0.19c0.54-0.07,1.08-0.17,1.61-0.3c0.96-0.23,1.87-0.53,2.77-0.92
	c0.79-0.34,1.5-0.84,2.17-1.38c1.39-1.02,2.59-2.31,3.65-3.66c0.61-0.79,1.19-1.61,1.71-2.46c0.91-1.48,1.69-3.01,2.48-4.55
	c0.29-0.46,0.55-0.93,0.78-1.41c-1.54-0.45-3.09-0.82-4.71-0.85c-1.09-0.02-1.09-1.71,0-1.69c1.87,0.03,3.63,0.47,5.39,0.99
	c0.09-0.23,0.17-0.46,0.24-0.69c0.21-0.48,0.38-0.98,0.53-1.48c0.08-0.23,0.17-0.46,0.25-0.68c0.19-0.79,0.38-1.58,0.57-2.38
	c0.38-1.27,0.68-2.56,0.91-3.86c0.19-0.86,0.33-1.72,0.43-2.6c0.3-2.12,0.54-4.24,0.55-6.38c-0.03-1.32-0.11-2.64-0.25-3.95
	c-0.06-0.89-0.16-1.78-0.3-2.66c-0.18-1.31-0.36-2.61-0.66-3.9c-0.23-0.87-0.45-1.75-0.68-2.62c-0.56-1.82-1.23-3.61-2-5.36
	c-0.04-0.11-0.26-0.35-0.38-0.35c-0.1,0-0.23,0.09-0.19,0.21c0,0.01,0.01,0.02,0.01,0.03c-0.04-0.1-0.09-0.2-0.13-0.3
	c-0.04-0.09-0.19-0.28-0.3-0.28c-0.01,0-0.01,0-0.02,0c0.03-0.02,0.06-0.05,0.08-0.08c0.76-0.9,1.25-2.08,1.79-3.12
	c0.45-0.86,0.87-1.76,1-2.73c0.11-0.85-0.04-1.69-0.57-2.38c-0.61-0.78-1.75-1.15-1.12-2.28c0.72-1.29,1.79-2.41,0.73-3.87
	c-0.54-0.75-1.39-1.16-2.03-1.8c-0.73-0.75-1.08-1.75-1.06-2.78c0.04,0.03,0.1,0.01,0.12-0.05c0.61-1.85,0.17-3.88-0.46-5.69
	c-0.34-0.98-1.07-1.25-1.91-1.3c3.65-7.13,7.07-14.38,10.11-21.79c0.1-0.24,0.2-0.49,0.3-0.73c0.15-0.36-0.16-0.85-0.53-0.93
	C197.75,216.12,195.01,215.93,192.33,215.68z"/>
<path id="_xD83C__xDFA8_-Background_1_" class="st0" d="M119.87,92.27c32.02-1.58,34.26,7.74,38.66,13.67
	c2.18,2.95,7.82,7.31,8.75,17.38c0.65,6.99-3.48,15.05-3.48,21.3c0,3.19,3.9,10.04,2.09,14.69c-4.05,10.35-12.61,21.83-23.52,21.83
	s-31.06-6.02-43.12-23.29C95.29,152.2,87.85,93.85,119.87,92.27z"/>
<path id="_xD83D__xDD8D_-Ink_1_" class="st2" d="M166.48,145.25c-0.7-0.77-1.24-1.41-1.42-2.47c-0.08-0.44-0.11-0.9-0.12-1.35
	c2.81-3.93,5.54-13.2,5.54-18.28c0-7.16-2.64-14.04-6.97-19.74c-8.44-11.09-22.5-16.78-36.25-16.34
	c-13.17,0.42-27.18,5.28-35.39,15.66c-27.26,34.44-4.38,72.07,12.38,79.9c1.46,0.68,6.17,0.44,5.51-1.01
	c-1.89-4.18-3.37-11.88-3.72-13.61c0.54,0.36,1.08,0.71,1.62,1.08c0.96,0.64,2.25,1.38,3.46,1.17c0.06-0.01,0.09-0.07,0.1-0.12
	c0.05-1.14-0.76-2.3-1.47-3.11c-0.99-1.12-1.93-2.28-3-3.33c-0.45-0.45-0.91-0.9-1.38-1.34c-0.06-2.68,0.12-5.36,0.6-8.05
	c0.83-4.66,2.26-9.21,3.91-13.68c1.38-1.01,2.71-2.08,3.95-3.25c2.98-2.81,5.25-6.25,7.2-9.86c0.02-0.01,0.05-0.02,0.07-0.03
	c3.78-1.76,7.52-3.58,11.23-5.46c1.92-0.97,3.82-1.96,5.72-2.96c1.04-0.54,2.1-1.03,3.16-1.54c-0.29,1.46-0.67,2.9-1.14,4.32
	c-0.38,1.16,0.79,2.02,1.83,1.83c3.54-0.65,6.96-1.97,10.04-3.84c1.53-0.92,2.98-1.99,4.32-3.16c1.35,2.01,2.98,3.89,4.63,5.51
	c1.11,1.09,2.28,2.13,3.49,3.12c-0.55,3.77-1.02,7.54-1.61,11.31c-0.31,1.97-0.68,3.93-0.92,5.91c-0.26,2.15,0.46,3.69,1.87,5.26
	c1.98,2.2,1.98,5.38,1.22,8.12c-0.09,0.34-0.21,0.67-0.33,1c-0.03,0.07-0.1,0.25-0.13,0.32c0,0,0,0,0,0.01c0,0,0,0,0,0.01
	c-0.09,0.21-0.18,0.41-0.28,0.61c-0.43,0.92-0.92,1.81-1.42,2.69c-2.47,4.34-5.59,8.31-9.15,11.82c-1.66,1.63-3.38,3.15-5.32,4.39
	c-0.41,0.26-0.83,0.51-1.26,0.74c-0.23,0.12-0.47,0.24-0.7,0.36c-0.35,0.17-0.2,0.1-0.41,0.19c-0.38,0.15-0.77,0.28-1.17,0.38
	c-0.21,0.05-0.43,0.1-0.65,0.14h-0.01c0,0,0,0-0.01,0h-0.01c-0.08,0.01-0.22,0.02-0.25,0.02c-3.03,0.01-6.04-0.4-8.98-1.15
	c-1.59-0.41-3.18-0.91-4.68-1.59c-0.76-0.35-1.5-0.74-2.22-1.17c-0.32-0.2-0.62-0.43-0.96-0.6c-0.5-0.26-1-0.23-1.54-0.25
	c-0.83-0.03-1.42,0.83-1.21,1.59c0.25,0.93,0.64,1.48,1.43,2.03c0.64,0.44,1.31,0.83,2,1.18c1.5,0.77,3.09,1.4,4.69,1.91
	c3.01,0.96,6.17,1.55,9.32,1.76c2.29,0.16,4.28-0.15,6.37-1.12c2.2-1.02,4.18-2.54,6.01-4.13c4.09-3.54,7.65-7.83,10.67-12.31
	c2.84-4.21,5.04-8.79,4.31-14.02C168.75,148.63,167.9,146.82,166.48,145.25"/>
<path id="_xD83D__xDD8D_-Ink_2_" class="st2" d="M139.82,168.6c-1.42-0.58-2.69-1.55-3.61-2.78c-0.32-0.43-0.41-0.88-0.34-1.3
	c0.08-0.47,0.35-0.89,0.73-1.17c0.38-0.28,0.85-0.42,1.31-0.35c0.4,0.06,0.79,0.28,1.1,0.73l0.07,0.09
	c0.55,0.75,1.27,1.36,2.09,1.75c0.79,0.38,1.67,0.56,2.58,0.45c1.74-0.2,2.93-1.14,4.21-2.41c0.16-0.16,0.32-0.33,0.47-0.5
	c0.1-0.15,0.24-0.25,0.39-0.3c0.17-0.06,0.37-0.05,0.54,0.01s0.32,0.17,0.43,0.32c0.1,0.14,0.15,0.32,0.13,0.52
	c-0.12,1.32-0.81,2.5-1.79,3.43c-1.09,1.03-2.54,1.74-3.9,1.99C142.73,169.36,141.2,169.16,139.82,168.6L139.82,168.6z
	 M144.94,148.19c1.6,0.97,4.03,3.23,2.31,5.64c-2.02,2.12-4.93-0.31-6.36-1.41c-1.33-0.85-2.82,1.34-1.59,2.33
	c10.36,7.67,14.56-6.31,6.45-7.7C144.85,146.89,144.52,147.89,144.94,148.19z M126.38,139.26c0.18-2.19,3.51-2.69,3.84-0.52
	c0.3,1.94-0.05,3.72-0.93,5.47c-0.83,1.67-2.93,0.89-3.09-0.63C125.99,141.55,126.27,140.63,126.38,139.26z M151.74,138.3
	c0.46-0.61,1.14-1.02,1.94-0.79c2.51,0.73,1.77,4.3,0.89,6.04c-0.48,0.94-2.03,1.18-2.73,0.35c-1.14-1.35-1.69-4.06-0.24-5.39
	C151.65,138.44,151.69,138.37,151.74,138.3z M129.26,129.69l0.4-0.07c1.23-0.21,2.75-0.42,3.62,0.57c0.46,0.52,0.62,1.5,0,2
	c-1.09,0.88-2.29,0.54-3.6,0.61c-1.07,0.06-2.11,0.24-3.14,0.54c-2.27,0.65-4.12,1.84-6.06,3.14c-0.25,0.17-0.51-0.15-0.39-0.39
	c1.12-2.19,3.29-4,5.46-5.1C126.7,130.4,127.97,129.91,129.26,129.69z M149.46,128.7l0.3,0.06c3.3,0.69,7.6,2.07,9.16,5.32
	c0.06,0.46,0,0.56-0.05,0.62l-0.02,0.02c-0.04,0.05-0.08,0.13-0.27,0.19c-0.06-0.01-0.11-0.03-0.17-0.04
	c-0.72-0.19-1.28-0.45-1.83-0.72l-0.6-0.29c-0.69-0.34-1.39-0.67-2.13-0.91c-1.58-0.51-3.2-0.88-4.84-1.07
	c-0.36-0.04-0.7-0.16-0.97-0.37c-0.26-0.2-0.45-0.47-0.54-0.83c-0.12-0.47-0.08-0.82,0.17-1.24c0.19-0.32,0.46-0.54,0.77-0.66
	C148.74,128.66,149.1,128.63,149.46,128.7z"/>
<g id="facial-hair_x2F__x2A_-None" transform="translate(104.577451, 109.479380)">
</g>
<path class="st3" d="M171.3,147.35l61.14-41.22c0.85-0.57,0.99-1.77,0.3-2.53l-14.64-16.01c-0.69-0.76-1.9-0.72-2.54,0.07
	l-46.49,57.23C167.84,146.4,169.7,148.43,171.3,147.35z"/>
</svg>
