<?xml version="1.0" encoding="utf-8"?>
<!-- Generator: Adobe Illustrator 24.0.3, SVG Export Plug-In . SVG Version: 6.00 Build 0)  -->
<svg version="1.1" id="圖層_1" xmlns="http://www.w3.org/2000/svg" xmlns:xlink="http://www.w3.org/1999/xlink" x="0px" y="0px"
	 viewBox="0 0 250.25 257" style="enable-background:new 0 0 250.25 257;" xml:space="preserve">
<style type="text/css">
	.st0{fill-rule:evenodd;clip-rule:evenodd;fill:#FFEDB4;}
	.st1{fill-rule:evenodd;clip-rule:evenodd;}
	.st2{fill-rule:evenodd;clip-rule:evenodd;fill:#EFBFA4;}
</style>
<title>peep-11</title>
<desc>Created with Sketch.</desc>
<path id="_xD83C__xDFA8_-Background" class="st0" d="M204.48,245.5c1.19,0.13,2.33-0.64,2.68-1.81c0.28-1.34,1.38-3.13,0.58-4.37
	c1.81-28.37-8.66-78.8-23.91-102.74c-6.8-11.21-17.16-18.89-28.79-24.18c-2.56-1.16-7.25-0.93-9.91-1.88
	c-1.44-0.64-0.6-2.73-1.8-3.55c-2.94-2-5.66-4.09-10.5-4.09c-2.61-12.63-12.86-14.62-23.23-10.66c-5.9,1.77-10.19,4.13-9.5,13.42
	c-3.74-0.61-6.75-1.29-8.79,0.61c-2,1.87-3.04,6.29-4.44,8.93c-1.42,2.4-2.45,1.89-4.91,3.31c-2.85,1.64-7.82,6.66-10.12,9.05
	c-7.31,8.77-10.53,17.56-14.28,28.16c-9.11,29.84-12.08,61.13-13.55,92.16c2.33,5.83,30.84,3.65,37.35,3.16
	c11.01-1.05,22.05-0.91,33.07-0.08c27.83,1.52,55.93,1.31,83.53-2.88C200.25,247.68,202.82,247.28,204.48,245.5z"/>
<path id="_xD83D__xDD8D_-Ink" class="st1" d="M59.02,160.74l-0.22,0.95c-2.1,9.16-4.12,18.33-5.71,27.6
	c-1.63,9.49-3.02,19.02-4.12,28.58c-0.62,5.38-1.13,10.77-1.6,16.17c-0.24,2.73-0.45,5.47-0.65,8.2c-0.09,1.3-0.17,2.6-0.27,3.9
	c-0.05,0.71-0.06,1.44-0.17,2.14c-0.12,0.72-0.43,1.26-0.8,1.84l-0.16,0.25c-0.57,0.86-2.01,1.04-2.53,0
	c-0.27-0.52-0.57-1.04-0.71-1.61c-0.17-0.66-0.09-1.33-0.05-2.01l0.04-0.74c0.05-0.99,0.12-1.97,0.18-2.96
	c0.17-2.46,0.36-4.93,0.56-7.39c0.41-4.92,0.94-9.84,1.54-14.74c1.2-9.92,2.69-19.8,4.55-29.61c1.84-9.69,3.87-19.37,6.27-28.94
	l0.08-0.32c2.25-8.95,4.86-18.1,9.43-26.17c4.42-7.79,10.7-14.53,18.88-18.37c0.17-0.08,0.32,0.16,0.15,0.26
	C68.38,126.33,62.7,144.75,59.02,160.74z M172.73,188.35c2.26-1.16,4.31-2.63,6.09-4.48c0.16-0.16,0.37,0.07,0.24,0.24
	c-1.74,2.25-3.79,4.24-6.12,5.88c0.16,1.3,0.29,2.59,0.45,3.86l0.1,0.81c0.5,4.32,0.87,8.68,1.15,13.02
	c0.58,9.21,0.9,18.44,1.07,27.67c0.04,2.52,0.08,5.03,0.1,7.55c0.01,1.25,0.08,2.52-0.02,3.78c-0.07,0.83-0.13,1.64-0.51,2.39
	c-0.28,0.54-0.65,0.8-1.09,1.15l-0.13,0.1c-0.46,0.37-0.94,0.36-1.4,0l-0.07-0.05c-0.36-0.27-0.73-0.48-0.99-0.88
	c-0.37-0.57-0.54-1.2-0.62-1.86c-0.12-1.01-0.15-2-0.16-3.01l-0.03-2.28c-0.02-1.73-0.05-3.46-0.08-5.19
	c-0.08-4.61-0.18-9.23-0.29-13.84c-0.22-9.22-0.47-18.44-0.61-27.66c-0.04-2.51-0.04-5.03,0.04-7.54c0.08-2.54,0.14-5.1,0.69-7.58
	c0.04-0.2,0.3-0.16,0.36,0C171.85,182.93,172.36,185.63,172.73,188.35z M133.12,101.2l0.09,0.37c0.08,0.37,0.16,0.75,0.24,1.12
	c2.79-0.88,5.46-0.08,7.91,1.54c0.31,0.01,0.62,0.14,0.84,0.36c1.01,0.98,1.81,2.12,2.34,3.42c0.53,1.32,1.1,3.25-0.07,4.36
	c-0.11,0.1-0.22,0.17-0.35,0.21c0.39,1.25,0.51,2.55,0.69,3.86l0.11,0.83c0.15,1.1,0.28,2.21,0.41,3.31
	c0.3,2.47,0.52,4.95,0.72,7.43l0.17,2.08c0.46,5.59,1,11.25,0.11,16.82c-0.21,1.3-1.96,1.51-2.79,0.74
	c-4.31-4.06-9.08-7.93-14.26-10.84c-1.44-0.81-2.48-0.12-3.83,0.57l-2.99,1.53l0,0l-1.5,0.77c-1.5,0.77-2.99,1.54-4.48,2.31
	c-1.3,0.67-2.62,1.64-4.06,1.12c0.03,0.44,0.06,0.88,0.09,1.32l0.05,0.68c0.11,1.6,0.17,3.19,0.25,4.79
	c0.16,3.58,0.29,7.16,0.41,10.74c0.24,7.16,0.34,14.32,0.49,21.48c0.3,14.25,0.67,28.49,0.72,42.74c0.01,4-0.05,8-0.19,12
	l-0.02,0.74c-0.11,3.73-0.15,7.49-0.74,11.17c-0.07,0.46-0.83,0.45-0.92,0c-0.64-3.44-0.77-6.96-0.97-10.44l-0.1-1.65
	c-0.18-3.03-0.34-6.06-0.42-9.09c-0.19-7.16-0.33-14.32-0.35-21.48c-0.04-14.25-0.19-28.5-0.14-42.74c0.02-4,0.06-8,0.13-12
	l0.01-0.68c0.03-1.81,0.04-3.62,0.13-5.43c0.07-1.35,0.05-2.71,0.27-4.03c-0.47,0.29-1.05,0.34-1.54-0.04
	c-1.15-0.32-2.24-1.12-3.26-1.68c-1.22-0.67-2.43-1.36-3.65-2.02c-2.51-1.35-5.02-2.7-7.55-4l-0.07-0.04
	c-1.05-0.55-2.34-1.46-3.56-1.25c-1.31,0.22-2.61,1.12-3.79,1.7l0,0l-4.06,2.01c-0.44,0.22-0.85,0.44-1.26,0.63l0,0l-0.02,0.07l0,0
	l0,0.04c0.17,0.23,0.28,0.49,0.29,0.78c0.1,1.84-2.28,2.19-3.18,0.82c-0.23-0.35-0.33-0.76-0.34-1.19
	c-0.38-0.25-0.59-0.75-0.29-1.17c0.18-0.26,0.38-0.48,0.58-0.68c0.18-0.63,0.4-1.23,0.53-1.73c0.46-1.73,0.94-3.46,1.45-5.18
	c1.05-3.57,2.21-7.11,3.49-10.6c0.64-1.75,1.3-3.49,2-5.21l0.1-0.24c0.6-1.53,1.16-3.13,1.96-4.56c0.72-1.29,1.94-2.52,3.41-2.9
	c1.35-0.35,3.03,0.01,4.47,0.37l0.76,0.19c0.14,0.03,0.15,0.22,0.04,0.29c-1.24,0.77-2.79,0.23-4.14,0.6
	c-1.35,0.36-1.83,1.66-2.3,2.84l-0.35,0.86c-1.16,2.88-2.26,5.78-3.28,8.71c-1.09,3.14-2.09,6.3-3,9.5
	c-0.47,1.64-0.92,3.28-1.33,4.93l3.87-1.84l0.13-0.06c1.25-0.61,2.54-1.35,3.93-1.56c1.49-0.22,2.74,0.37,4,1.11l0.5,0.29
	c2.52,1.48,4.99,3.02,7.41,4.67c1.31,0.9,2.63,1.8,3.91,2.75c0.51,0.38,1.1,0.76,1.65,1.19l0,0l-0.03-0.1
	c-2.6-5.71-5.21-11.42-7.64-17.21c-1.27-3.02-2.5-6.05-3.59-9.14l-0.02-0.05c-0.35-0.96-1.27-2.53-0.77-3.53
	c0.18-0.36,0.62-0.71,0.94-0.32c0.07,0.09-0.02,0.24-0.13,0.17l-0.02-0.01c-0.22-0.09,0.07,0.83,0.07,0.83l0.06,0.13
	c0.13,0.26,0.29,0.51,0.42,0.77c0.31,0.61,0.62,1.21,0.92,1.82c0.2,0.41,0.4,0.82,0.6,1.22l1.2,2.45c1.23,2.52,2.4,5.06,3.63,7.58
	c2.43,4.98,4.88,9.96,7.53,14.82c0.19,0.35,0.22,0.71,0.14,1.05c0.07,0.22,0.13,0.45,0.18,0.67c0.79-1.01,2.36-1.51,3.44-2.06
	c1.62-0.83,3.24-1.66,4.86-2.49c1.59-0.82,3.17-1.7,4.79-2.45c1.63-0.76,3.23-1.01,4.92-0.27c1.29,0.57,2.5,1.38,3.68,2.17
	l0.98,0.66c1.21,0.82,2.4,1.66,3.57,2.54c1.77,1.34,3.49,2.74,5.14,4.21c0.36-3.72,0.27-7.46,0.13-11.19l-0.11-2.8
	c-0.11-2.83-0.2-5.67-0.2-8.5l0-0.22c-0.01-2.53-0.24-5.28,0.27-7.78c-0.13-0.04-0.25-0.11-0.37-0.2c-1.07-0.91-0.76-2.74-1.31-3.98
	c-0.25-0.56-0.58-1.1-0.97-1.57c-0.34-0.42-0.68-0.74-0.77-1.18c-1.64-1.72-4.26-2.7-6.64-2.57l0,0l0.42,2.08
	c0.1,0.47,0.31,1.21,0.47,2.01c0.27-0.38,0.55-0.75,0.86-1.1c0.09-0.1,0.24,0.01,0.22,0.13c-0.19,0.86-0.5,1.69-0.86,2.51
	c0.07,1.14-0.16,2.16-1.11,2.47c-0.49,1.07-1,2.12-1.56,3.15c-1.47,2.72-3.18,5.34-5.02,7.83c-1.81,2.44-3.71,4.81-5.72,7.09
	c-1.01,1.14-2.05,2.25-3.11,3.34c-0.51,0.52-1.02,1.05-1.55,1.55l-0.06,0.06c-0.23,0.23-0.49,0.51-0.78,0.65l-0.06,0.03
	c-0.2,0.11-0.42,0.16-0.65,0.16c-0.37-0.11-0.47-0.11-0.31,0l0.04,0.03c-0.89,0.34-1.42-0.75-1.11-1.44
	c0.03-0.08,0.06-0.54,0.15-0.72c0.17-0.32,0.48-0.56,0.73-0.81l0.42-0.42c0.42-0.42,0.85-0.83,1.27-1.25
	c1.03-1.04,2.04-2.1,3.03-3.17c2.03-2.2,3.96-4.49,5.78-6.87c1.78-2.33,3.49-4.71,5.18-7.11l0.82-1.16l0,0l0.82-1.16
	c-0.38-0.26-0.64-0.68-0.66-1.18c-0.09-0.39,0.03-0.78,0.3-1.05l0,0l0.01-0.18c0.02-0.48-0.01-0.97-0.02-1.44l0,0l-0.01-3.44
	c0-1.08,0-2.16,0.04-3.24l0-0.07c0.02-0.74-0.09-1.63,0.41-2.21c0.03-0.04,0.08-0.02,0.11,0C132.82,98.75,132.9,100.28,133.12,101.2
	z M107.98,244.79c0.27,0.27,0.46,0.6,0.57,0.97l0,0l0.05,0.12c0.1,0.38,0.1,0.76,0,1.14c-0.1,0.36-0.29,0.68-0.55,0.95
	c-0.27,0.27-0.58,0.45-0.95,0.55c-0.38,0.1-0.76,0.1-1.14,0l-0.12-0.05l-0.08-0.02c-0.34-0.11-0.64-0.29-0.89-0.54
	c-0.27-0.27-0.46-0.6-0.57-0.97c-0.21-0.76,0.01-1.59,0.57-2.14c0.56-0.56,1.38-0.77,2.14-0.57
	C107.38,244.33,107.7,244.52,107.98,244.79z M65.98,173.53c0.24-1.16,0.56-2.31,1.06-3.36c0.04-0.08,0.16-0.06,0.18,0.02
	c0.48,2.14,0.26,4.5,0.19,6.68c-0.08,2.36,0.05,4.72,0.01,7.08c-0.06,3.56-0.26,7.12-0.47,10.68l-0.2,3.28
	c-0.56,9.39-0.99,18.8-1.69,28.18c-0.39,5.29-0.73,10.58-0.99,15.88c-0.04,0.79-0.59,1.8-1.47,1.93c-0.39,0.06-0.68,0.07-1.06,0
	c-0.85-0.15-1.48-1.11-1.47-1.93c0.1-9.48,0.18-18.95,0.83-28.41c0.64-9.43,1.39-18.88,2.84-28.22c0.4-2.6,1.02-5.13,1.52-7.7
	c0.12-0.6,0.22-1.22,0.32-1.85c-1.29-2.25-2.61-4.55-3.79-6.87c-0.08-0.15,0.12-0.33,0.25-0.19
	C63.38,170.27,64.69,171.9,65.98,173.53z M152.93,111.77c2.26,0.42,4.49,1.14,6.61,2.04c4.2,1.77,8.1,4.12,11.68,6.94
	c7.7,6.06,13.54,14.13,17.99,22.8c4.79,9.34,8.16,19.4,11,29.48c3.01,10.69,5.31,21.59,6.84,32.59c0.86,6.19,1.46,12.41,1.83,18.65
	c0.18,3.07,0.3,6.15,0.36,9.23c0.03,1.61,0.05,3.21,0.05,4.82c0,0.8,0.04,1.62-0.02,2.41c-0.06,0.74-0.48,1.28-0.91,1.85l-0.15,0.2
	c-0.4,0.54-1.11,0.57-1.5,0c-0.33-0.48-0.78-0.99-0.94-1.57c-0.17-0.63-0.06-1.44-0.06-2.08c0-1.41,0-2.81-0.02-4.22
	c-0.03-2.74-0.11-5.49-0.24-8.23c-0.25-5.35-0.68-10.69-1.28-16.01c-1.22-10.76-3.11-21.43-5.76-31.93
	c-4.78-18.9-11.3-39-25.6-52.94c-3.58-3.49-7.63-6.54-12.05-8.91c-2.26-1.21-4.6-2.23-7.01-3.1l-0.2-0.07
	c-2.38-0.87-4.82-1.9-7.34-2.19c-0.17-0.02-0.18-0.29,0-0.28C148.46,111.42,150.69,111.36,152.93,111.77z M108.3,227.1
	c0.25,0.23,0.44,0.51,0.57,0.83c0.14,0.32,0.16,0.45,0.2,0.77l0.02,0.19c0.05,0.46-0.25,1.1-0.58,1.4c-0.37,0.34-0.89,0.63-1.4,0.58
	c-0.04,0-0.09,0-0.13,0c-0.05,0.01-0.09,0.01-0.14,0.02c-0.07,0.01-0.13,0.02-0.2,0.02l0,0l-0.07,0.01l0.04-0.01l-0.07,0
	c-0.2,0.01-0.41,0-0.62-0.07c-0.41-0.13-0.69-0.33-1.02-0.6l0,0l-0.35-0.45c-0.16-0.26-0.25-0.53-0.26-0.83
	c-0.06-0.45-0.02-1.05,0.26-1.42c0.12-0.16,0.25-0.32,0.37-0.48l0,0l0.46-0.35c0.34-0.22,0.79-0.31,1.19-0.31
	C107.23,226.4,107.82,226.65,108.3,227.1z M108.52,205.59l-0.02,0.04c-0.02,0.03-0.03,0.06-0.05,0.08l-0.04,0.07
	c-0.25,0.39-0.62,0.68-1.05,0.86c-0.5,0.21-0.95,0.21-1.48,0.11c-0.33-0.06-0.67-0.26-0.91-0.49l0,0l-0.1-0.09
	c-0.4-0.39-0.69-1.05-0.67-1.61c0.03-0.57,0.21-1.24,0.67-1.61c0.18-0.15,0.37-0.32,0.58-0.43c0.85-0.45,2.03-0.4,2.71,0.35
	C108.87,203.64,109,204.67,108.52,205.59z M109.25,180.35c0.07,0.13,0.21,0.44,0.26,0.66c0.11,0.5,0.1,0.71,0.05,1.1l-0.04,0.29
	c-0.1,0.36-0.29,0.68-0.55,0.95c-0.27,0.27-0.58,0.45-0.95,0.55c-0.61,0.17-1.3,0.05-1.82-0.32c-0.15-0.06-0.28-0.14-0.39-0.26
	c-0.18-0.1-0.31-0.24-0.42-0.42c-0.07-0.08-0.13-0.17-0.19-0.25l0,0l-0.23-0.56l-0.08-0.62l0.08-0.62c0.07-0.3,0.21-0.57,0.42-0.79
	c0.1-0.17,0.24-0.31,0.42-0.42c0.14-0.14,0.32-0.24,0.51-0.3c0.18-0.11,0.38-0.16,0.59-0.16c0.31-0.07,0.62-0.06,0.93,0.04
	C108.42,179.42,108.93,179.8,109.25,180.35z M87.84,162.45c2.23,0.13,4.44,0.33,6.65,0.61c2.14,0.27,4.45,0.5,6.49,1.21
	c0.29,0.1,0.23,0.49-0.07,0.53c-2.17,0.23-4.45,0.02-6.63-0.01c-2.15-0.03-4.3-0.05-6.44-0.05c-2.15,0.01-4.3,0.07-6.45,0.17
	c-1.11,0.05-2.22,0.11-3.33,0.19c-1.05,0.07-2.2,0.39-3.11-0.25c-0.6-0.42-0.88-1.36-0.25-1.93c0.88-0.77,1.83-0.66,2.95-0.68
	l0.67-0.01c0.89-0.01,1.77-0.01,2.66-0.01C83.27,162.24,85.56,162.32,87.84,162.45z M107.82,155.27c0.29,0,0.56,0.07,0.82,0.2
	c0.29,0.09,0.54,0.25,0.75,0.48c0.23,0.21,0.39,0.46,0.48,0.75c0.15,0.28,0.21,0.57,0.2,0.89l0,0l-0.08,0.62
	c-0.11,0.39-0.31,0.73-0.6,1.02l0,0l-0.47,0.36c-0.36,0.21-0.75,0.32-1.17,0.32l-0.07,0c-0.29,0-0.56-0.07-0.82-0.2
	c-0.29-0.09-0.54-0.25-0.75-0.48c-0.23-0.21-0.39-0.46-0.48-0.75c-0.14-0.28-0.21-0.57-0.2-0.89l0,0l0.08-0.62
	c0.11-0.39,0.31-0.73,0.6-1.02l0.47-0.36l0.07-0.04c0.34-0.18,0.71-0.27,1.1-0.28L107.82,155.27L107.82,155.27z M102.4,106.56
	c-0.15,1.91-0.49,5.32-2.94,5.43c-0.55,0.02-1.06-0.32-1.35-0.77c-0.6-0.96-0.25-1.79,0.19-2.67l0.14-0.28
	c0.34-0.67,0.57-1.4,0.74-2.14c0.37-1.6,0.46-3.19,0.49-4.82c-0.13-0.58,0.78-1.22,1.27-0.5
	C102.07,102.44,102.55,104.6,102.4,106.56z"/>
<path id="_xD83C__xDFA8_-Background_1_" class="st2" d="M75.59,57.12c-4.48,44.19,20.85,60.74,60.07,40.39
	c3.29-1.55,6.63-3.34,8.83-6.26c9.92-2.72,15.35-13.41,14.68-23.19c-1.93-28.58-38.3-56.55-65.97-45.44
	C80.65,29.07,76.39,43.97,75.59,57.12L75.59,57.12z"/>
<path id="_xD83D__xDD8D_-Ink_1_" class="st1" d="M59.3,72.35c-0.93,3.69-1.55,7.68-0.31,11.38c0.85,2.53,2.37,4.72,4.09,6.73
	c1.73,2.03,3.66,3.86,5.46,5.82c1.58,1.72,3.2,3.62,4,5.86c2.23,6.25-3.37,11.12-6.22,16.06c-3.55,6.16-4.38,14.04-1.16,20.51
	c2.74,5.51,7.02,10.18,13.38,9.43c0.72-0.08,5.14-2.37,6.75-3.58c0.28-0.21,0.56-0.43,0.83-0.64c0.72-0.56,0.44-1.83-0.29-2.22
	c-2.88-1.55-3.37-4.57-1.69-7.26c1.83-2.93,5.11-4.62,7.76-6.71c2.4-1.9,4.37-4.3,5.66-7.08c2.15-4.62,2.48-9.82,0.83-14.56
	c0.34,0.09,0.68,0.18,1.03,0.26c7.37,1.65,16.65-0.44,21.38-6.71c0.16-0.21-0.15-0.49-0.35-0.35c-3.59,2.43-7.19,4.4-11.5,5.22
	c-3.9,0.74-7.94,0.34-11.64-1.06c-0.18-0.07-0.36-0.14-0.54-0.21c-7.16-2.91-11.78-9.23-13.48-16.64
	c-1.85-8.03-0.98-16.52-0.64-24.67c0.34-8.14-0.25-14.56,4.25-21.74c3.21-5.12,10.99-7.23,14.48-7.94
	c7.57,9.48,19.14,10.12,25.5,15.59c5.75,4.94,10.66,11.32,9.56,19.34c-0.14,0.98,0.87,1.66,1.67,0.97c0.12-0.11,0.24-0.21,0.37-0.31
	c1.35-1.16,2.72-2.31,4.1-3.45c0.43-0.36,0.88-0.71,1.33-1.07c1.36-0.19,2.76-0.07,4.06,0.33c0.04,0.61,0.08,1.22,0.13,1.83
	c0.1,1.29,0.22,2.57,0.35,3.86c-0.59-0.01-1.18,0.04-1.76,0.16c-1.68,0.35-4.39,1.41-4.87,3.25c-0.24,0.91,0.74,1.61,1.54,1.19
	c0.7-0.37,1.1-1.08,1.67-1.61c0.58-0.53,1.27-0.97,1.99-1.29c0.51-0.23,1.02-0.41,1.55-0.53c0.22,2,0.47,4,0.74,6
	c0.15,1.08,0.3,2.17,0.46,3.25c-0.93,0.36-1.8,0.29-2.87,0.1c-0.71-0.12-1.24,0.34-1.3,0.91l-0.16-0.02
	c0.04-0.38-0.16-0.74-0.48-1.06c-0.12-0.12-0.34-0.1-0.43,0.05c-1.01,1.75-1.68,3.69-2.69,5.45c-1,1.73-2.04,3.43-3.2,5.06
	c-1.19,1.68-2.54,3.24-3.96,4.73c-0.17,0.18-0.34,0.36-0.52,0.53c-0.45,0.35-0.87,0.77-1.26,1.22c-0.1,0.1-0.2,0.19-0.3,0.28
	c-0.79,0.71-1.45,1.26-1.77,2.3c-0.04,0.13-0.04,0.27-0.02,0.41c-0.98,1.66-1.74,3.43-2.32,5.27c-1.12,3.55-1.56,7.29-1.98,10.98
	c-0.54,4.71-1.06,9.42-1.61,14.14c-0.5,4.27-0.97,8.63,0.98,12.63c0.8,1.64,2.12,3.25,3.74,4.14c0.98,0.54,2.61,0.68,3.61,0.02
	c2.19,0.74,4.94-0.12,7.04-1.14c3.1-1.51,5.93-3.65,8.63-5.78c0.23-0.18,0.46-0.36,0.68-0.54c4.41-0.1,12.14-1.68,15.38-4.77
	c1.06-1.01,1.99-2.16,2.75-3.41c0.3-0.03,0.59-0.07,0.89-0.11c5.74-0.36,10.84-4.16,13.71-9.26c3.31-5.86,3.19-12.81,0.68-18.95
	c-1.33-3.26-3.11-6.21-5.26-8.99c-2.16-2.79-4.67-5.19-7.17-7.67c-0.84-0.83-1.6-1.68-2.26-2.58c1.05-1.8,1.98-3.66,2.71-5.67
	c5.59-15.4,0.34-33.13-8.07-46.46c-3.81-6.04-14.95-19.47-24.1-22.88c-5.65-2.11-15.8-2.77-21.23-0.43
	C107.12,5.51,86.89,5.51,75.76,26.5c-1.86,3.52-3.22,7.29-4.72,10.98c-1.54,3.79-3,7.61-4.39,11.46
	C63.89,56.62,61.3,64.43,59.3,72.35z"/>
<g id="face_x2F_Smiling" transform="translate(112.183099, 77.354207)">
	<path id="_xD83D__xDD8D_-Ink_2_" class="st1" d="M-9.91,12.92c-1.38,0.56-2.91,0.76-4.41,0.49c-1.36-0.25-2.81-0.96-3.9-1.99
		c-0.98-0.93-1.67-2.11-1.79-3.43c-0.02-0.2,0.04-0.38,0.13-0.52c0.1-0.15,0.26-0.26,0.43-0.32c0.18-0.06,0.37-0.07,0.54-0.01
		c0.15,0.05,0.29,0.15,0.39,0.3c0.16,0.17,0.32,0.34,0.47,0.5c1.27,1.28,2.47,2.22,4.21,2.41c0.91,0.1,1.79-0.07,2.58-0.45
		c0.82-0.39,1.54-1.01,2.09-1.75l0.07-0.09c0.31-0.45,0.71-0.67,1.1-0.73c0.46-0.07,0.93,0.07,1.31,0.35
		c0.38,0.28,0.65,0.71,0.73,1.17c0.07,0.41-0.02,0.87-0.34,1.3C-7.22,11.37-8.49,12.34-9.91,12.92L-9.91,12.92z M-15.83-8.63
		c-8.11,1.39-3.91,15.37,6.45,7.7c1.23-1-0.26-3.19-1.59-2.33c-1.43,1.1-4.34,3.53-6.36,1.41c-1.72-2.41,0.71-4.67,2.31-5.64
		C-14.61-7.79-14.94-8.78-15.83-8.63z M3.71-12.09c-0.16,1.52-2.26,2.3-3.09,0.63c-0.87-1.75-1.22-3.53-0.93-5.47
		c0.33-2.17,3.66-1.67,3.84,0.52C3.64-15.05,3.92-14.13,3.71-12.09z M-21.7-17.17c1.45,1.33,0.9,4.04-0.24,5.39
		c-0.7,0.83-2.25,0.59-2.73-0.35c-0.88-1.74-1.62-5.3,0.89-6.04c0.8-0.23,1.47,0.18,1.94,0.79C-21.78-17.31-21.74-17.24-21.7-17.17z
		 M4.37-24.69c2.17,1.1,4.34,2.9,5.46,5.1c0.12,0.24-0.14,0.56-0.39,0.39c-1.94-1.3-3.79-2.49-6.06-3.14
		c-1.04-0.3-2.07-0.47-3.14-0.54c-1.3-0.07-2.51,0.27-3.6-0.61c-0.62-0.5-0.46-1.47,0-2c0.87-0.99,2.39-0.78,3.62-0.57l0.4,0.07
		C1.94-25.77,3.21-25.28,4.37-24.69z M-18.51-26.88c0.31,0.13,0.58,0.35,0.77,0.66c0.25,0.42,0.28,0.77,0.17,1.24
		c-0.09,0.36-0.29,0.63-0.54,0.83c-0.27,0.21-0.61,0.33-0.97,0.37c-1.65,0.19-3.27,0.56-4.84,1.07c-0.74,0.24-1.44,0.57-2.13,0.91
		l-0.6,0.29c-0.55,0.27-1.12,0.53-1.83,0.72c-0.06,0.01-0.11,0.03-0.17,0.04c-0.2-0.06-0.23-0.14-0.27-0.19l-0.02-0.02
		c-0.05-0.06-0.11-0.16-0.05-0.62c1.56-3.25,5.86-4.63,9.16-5.32l0.3-0.06C-19.19-27.04-18.83-27.01-18.51-26.88z"/>
</g>
<g id="facial-hair_x2F__x2A_-None" transform="translate(104.577451, 109.479380)">
</g>
<g id="accessories_x2F__x2A_-None" transform="translate(88.521127, 88.978474)">
</g>
</svg>
