<?xml version="1.0" encoding="utf-8"?>
<!-- Generator: Adobe Illustrator 24.0.3, SVG Export Plug-In . SVG Version: 6.00 Build 0)  -->
<svg version="1.1" id="_x31_" xmlns="http://www.w3.org/2000/svg" xmlns:xlink="http://www.w3.org/1999/xlink" x="0px" y="0px"
	 viewBox="0 0 239.99 219.42" style="enable-background:new 0 0 239.99 219.42;" xml:space="preserve">
<style type="text/css">
	.st0{fill-rule:evenodd;clip-rule:evenodd;fill:#B5B07D;stroke:#B5B07D;stroke-width:0.216;stroke-miterlimit:22.9256;}
	.st1{fill-rule:evenodd;clip-rule:evenodd;fill:#FFF9B1;}
	.st2{fill-rule:evenodd;clip-rule:evenodd;fill:#FEDE4D;stroke:#FEEDB9;stroke-width:0.216;stroke-miterlimit:22.9256;}
	.st3{fill-rule:evenodd;clip-rule:evenodd;fill:#B57221;}
	.st4{fill-rule:evenodd;clip-rule:evenodd;fill:#FAE0C7;}
	.st5{fill-rule:evenodd;clip-rule:evenodd;fill:url(#SVGID_1_);}
	.st6{fill-rule:evenodd;clip-rule:evenodd;fill:#C71720;}
	.st7{fill-rule:evenodd;clip-rule:evenodd;fill:#FFFFFF;stroke:#FFFFFF;stroke-width:0.216;stroke-miterlimit:22.9256;}
	.st8{fill-rule:evenodd;clip-rule:evenodd;fill:none;stroke:#FFFFFF;stroke-width:0.216;stroke-miterlimit:22.9256;}
</style>
<path class="st0" d="M31.59,219.42c72.68-11.18,168.3-23.77,205.25-46.35c-27.36-26.93-32.83-84.94-36.24-93.99
	C139.59,101.08,92.59,197.42,31.59,219.42z"/>
<path class="st1" d="M0,31.66L186.6,4.74l28,148.68c-53.11,31.37-115.67,51.53-183.01,66L0,31.66z"/>
<path class="st2" d="M214.6,153.41c-21.29,12.58-44.11,23.35-68.14,32.68c19.78-13.46,42.55-20.47,56.63-46.19
	C207.31,143.71,211.5,147.58,214.6,153.41z"/>
<path class="st3" d="M93.34,32.72h4.08v9.43c-0.61,1.28-3.26,1.28-4.08,0V32.72z"/>
<path class="st4" d="M95.47,43.11L95.47,43.11c-0.85,0-1.72-0.32-2.13-0.96v-9.43h2.13V43.11z"/>
<linearGradient id="SVGID_1_" gradientUnits="userSpaceOnUse" x1="70.0095" y1="17.7787" x2="120.7545" y2="17.7787">
	<stop  offset="0" style="stop-color:#F09481"/>
	<stop  offset="1" style="stop-color:#E60012"/>
</linearGradient>
<path class="st5" d="M101.47,19.29c3.68,1.21,6.17,6.02,6.17,9.26s-5.49,7.01-12.25,7.01c-6.77,0-12.25-3.73-12.25-7.01
	c0-3.28,2.63-8.35,6.5-9.53v-6.6c-2.04-1.29-3.33-3.23-3.33-5.41C86.29,3.14,90.4,0,95.46,0c5.06,0,9.17,3.14,9.17,7.01
	c0,2.12-1.23,4.01-3.17,5.3V19.29z"/>
<path class="st6" d="M101.47,19.29c3.68,1.21,6.17,6.02,6.17,9.26c0,0.16-0.01,0.32-0.04,0.48c-0.67-2.57-2.45-5.74-4.67-6.87
	c-1.06,1.7-3.25,2.84-5.27,2.98c-0.09-3.45-0.12-7.21-0.19-10.58c1.84-0.76,2.65-1.16,4-2.25
	C101.47,14.64,101.47,16.96,101.47,19.29z"/>
<path class="st7" d="M92.87,26.56c1.3,0.16,2.27,1,2.16,1.87c-0.11,0.87-1.25,1.44-2.55,1.28c-1.3-0.16-2.27-1-2.16-1.87
	C90.42,26.97,91.57,26.39,92.87,26.56z"/>
<path class="st7" d="M97.51,18.7L97.51,18.7c0.39,0,0.71,0.32,0.71,0.71v3.63c0,0.39-0.32,0.71-0.71,0.71h0
	c-0.39,0-0.71-0.32-0.71-0.71v-3.63C96.8,19.02,97.12,18.7,97.51,18.7z"/>
<rect x="-7.62" y="-16.33" class="st8" width="252.07" height="252.07"/>
</svg>
